<svg xmlns="http://www.w3.org/2000/svg" viewBox="0 0 694.84 153.99"><title>brand</title><path d="M305.18,20.45A13,13,0,0,1,305,23.8l-.5,1.47h0c-1.19,1.38-2,2.27-2.39,2.69a3.61,3.61,0,0,1-1.06.88,1,1,0,0,1-.43.1,1,1,0,0,1-.38-.07,2.3,2.3,0,0,1-.39-.19,12.15,12.15,0,0,0-1.14-.71,1.73,1.73,0,0,0-.63-.21h-.16a2.51,2.51,0,0,0-1.15.36h0c-.53-.79-1.38-2.15-2.53-4.08h0l2.49-1.26a4.29,4.29,0,0,0,1.75,2.31,7.19,7.19,0,0,0,3.22.87H302c.14,0,.28-.16.4-.4A26.93,26.93,0,0,1,304,22a7.42,7.42,0,0,1,1.15-1.57Zm-1.74,8-1.16,3.41h0l-1,1.4q-1.12-1.11-2-2h0l1.88-1.14c.49-.31.91-.58,1.26-.83s.74-.55,1.06-.82ZM294.66,1.36a9.13,9.13,0,0,0-3.79,3.13,8.94,8.94,0,0,0-.93,2c-.08.07-.47,1.64-1.18,4.7A18.6,18.6,0,0,1,288.1,13h0c-1-.79-2.3-1.75-3.87-2.86l-.09.08a9.9,9.9,0,0,0-2.22,2.59,6.36,6.36,0,0,0-.86-.07,6.09,6.09,0,0,0-4.82,2.78q-2.52,3.12-6.44,13-2.46,6.24-3.86,11c-.34,1.18-.6,2.21-.77,3.08q-.71,5.26-1.06,5.76a73.42,73.42,0,0,1-3.64,8.23l-2.6,8.15.5,10.58c.73-.31,1.45-.6,2.13-.86h-.94c.21,1,.4,1.87.57,2.53l3.06,8.85q.85,2.85,1.8,7.26,2.36,11.3,2.05,14.48a4.41,4.41,0,0,1-1.34,2.71q-5.34,4.88-9.46,9.21-4.83,5-17.53,18.75l-.1.1c.11.34.22.67.35,1h.22a10.27,10.27,0,0,0-4,4.72c-.64,1.57-.81,4.36-.51,8.39a69.71,69.71,0,0,0,9.44,1.32h0l-.08-1.21h-.21a28.59,28.59,0,0,0,4,1.11H248c1,0,1.76,0,2.18,0h.39L256,154l1.44,0c.43,0,.83,0,1.2,0a8.84,8.84,0,0,0,4.39-1.14,2.65,2.65,0,0,0,1.22-1.86,1.68,1.68,0,0,0-.82-1.67,3.27,3.27,0,0,0-1.33-.4s-1.07-.11-3.14-.22c-.45,0-.85-.08-1.2-.14a7.88,7.88,0,0,1-1.78-.52c-1.37-.54-4.77-5-4.77-5h.17l.62,0,.72-3.17,27.59-24.62,2.29-19h.12l.05,0h0l9.08,7.62h0l-1.24,36h0a7.64,7.64,0,0,0-.47.69h0a6.29,6.29,0,0,0-.55,1.18q-.81,2.06-.35,7.34a63.16,63.16,0,0,0,8.27,1h0l-.08-1.05h-.08c1.76,1.15,3,1.73,3.67,1.73h.14c1.1,0,1.81-.07,2.15-.07h.19l4.89.22h1c.53,0,1,0,1.44-.05a8.17,8.17,0,0,0,4-1.09,2.44,2.44,0,0,0,1.09-1.71,1.55,1.55,0,0,0-.76-1.51,3.28,3.28,0,0,0-1.22-.35s-1-.08-2.87-.16c-.4,0-.77-.07-1.09-.12a6.86,6.86,0,0,1-1.62-.44,11.14,11.14,0,0,1-4-3.33h.05a14.08,14.08,0,0,1-.58-3.41l.47-7.8-.45-4.35a18.76,18.76,0,0,1-.06-2.12l.21-3.18q1.62-11.92,1.61-13.81a22.14,22.14,0,0,0-.46-7q.21-1.64-6.31-11.63-1-1.74-6-8.35h.15l.31.1q-7-11.43-8.08-16-1.52-4.84.28-11.85l4.15-8.37.1.07h0l.09,1.15v0h0s7.08,3.82,8.78,3.81a1.87,1.87,0,0,0,1.06-.26c.43-.19,1-3.55,1-3.55h0s.34,1.17.49,1.18l.61,0h0s2.83-.7,4-2.11A25.49,25.49,0,0,0,310,36.34a0,0,0,0,0,0,0h0s-.13.12-.28.36h0c.07-.27.14-.54.2-.82l-.65-.77h0a65.08,65.08,0,0,0,.6-7.13,2,2,0,0,1,.27-.91,1.62,1.62,0,0,1,1-.66l3.5-.62a7.9,7.9,0,0,0,1.63-.56,2.49,2.49,0,0,0,1.59-1.88l.1,0a.28.28,0,0,1,.13,0,3.65,3.65,0,0,0,1,.35s0,0,0,.34h0a2.42,2.42,0,0,1,.53-.56c.21-.2.36-.5-.64-.92l1.21-.8h0l1.55-.08.51-.66.37,1.23,4.78-.15V15.62h-4.78l-.54.5-.52-.5h-7.38V12h0l-4.54.08-.15,1.16-1.31.11h0c-.06-.24-.11-.48-.16-.75a17.87,17.87,0,0,1-.32-3.4h0a4.44,4.44,0,0,0,2.61-1.56,1.62,1.62,0,0,0-.56-2.37c-.18-.13-.4-.28-.65-.43-1.42-.8-2.26-1.3-2.53-1.5-.12,0-.95-.7-2.51-2a10.42,10.42,0,0,0-1-.67A5.82,5.82,0,0,0,300.18,0h-.13A13.06,13.06,0,0,0,294.66,1.36Z" transform="translate(-1.5)" style="fill:#ed2024"/><path d="M51.76,132c.1,2.1.17,3.9.23,5.4s.07,2.76.07,3.75v2.1a1.67,1.67,0,0,0,.15.75v.9q-9.3,0-14.25-3.9c-3.3-2.59-5-6.9-5-12.9v-18.3q-1.35-3.15-3.68-8t-5-10.65q-2.7-5.77-5.62-11.93T13.13,67.34Q10.51,61.64,8.25,57c-1.5-3.09-2.65-5.55-3.45-7.35-1-2-1.8-3.75-2.4-5.25a14,14,0,0,1-.9-2.7,22.54,22.54,0,0,1,8.1-.59,18.19,18.19,0,0,1,7,2.17,14.75,14.75,0,0,1,5.92,6.37c.6,1.11,1.33,2.58,2.18,4.43s1.8,3.88,2.85,6.07,2.18,4.5,3.38,6.9,2.34,4.81,3.45,7.2q3.9,8.26,8.25,17.7,4.35-9.45,8.25-17.7c1.1-2.39,2.22-4.8,3.38-7.2s2.25-4.69,3.3-6.9,2-4.22,2.92-6.07,1.65-3.32,2.25-4.43a14.76,14.76,0,0,1,5.93-6.37,18.14,18.14,0,0,1,7-2.17,23.55,23.55,0,0,1,8.25.59c-.3.91-.66,1.8-1.05,2.7-.6,1.5-1.4,3.26-2.4,5.25-.81,1.8-2,4.28-3.45,7.43s-3.16,6.63-5,10.42-3.67,7.8-5.62,12-3.85,8.25-5.7,12.15-3.58,7.53-5.18,10.88-2.85,6-3.75,8Z" transform="translate(-1.5)" style="fill:#282828"/><path d="M134.83,85.18a35,35,0,0,1,7.28,11.33,37.39,37.39,0,0,1,2.62,14,40.3,40.3,0,0,1-2.4,14,34.16,34.16,0,0,1-6.75,11.32,31,31,0,0,1-10.58,7.8,32.92,32.92,0,0,1-13.87,2.85,30.16,30.16,0,0,1-13-2.85,34.84,34.84,0,0,1-10.73-7.8,35.9,35.9,0,0,1-7.13-11.32,37.21,37.21,0,0,1-2.62-14,41.45,41.45,0,0,1,2.32-14,33.42,33.42,0,0,1,6.68-11.33,31.3,31.3,0,0,1,10.58-7.8,33.09,33.09,0,0,1,13.88-2.85,30.64,30.64,0,0,1,13.12,2.85A33.39,33.39,0,0,1,134.83,85.18Zm-23.7,48.45a14.44,14.44,0,0,0,4.57-.9,12.54,12.54,0,0,0,5-3.45,20.36,20.36,0,0,0,4-7,34.6,34.6,0,0,0,1.65-11.7,35.24,35.24,0,0,0-1.65-11.77,19.55,19.55,0,0,0-4-7.05,12.81,12.81,0,0,0-5-3.37,12,12,0,0,0-9.15,0,12.81,12.81,0,0,0-5,3.37,19.55,19.55,0,0,0-4,7.05,35.24,35.24,0,0,0-1.65,11.77,34.6,34.6,0,0,0,1.65,11.7,20.36,20.36,0,0,0,4,7,12.54,12.54,0,0,0,5,3.45A14.4,14.4,0,0,0,111.13,133.63Z" transform="translate(-1.5)" style="fill:#282828"/><path d="M220,114q0,10.06-3,16.35a26.44,26.44,0,0,1-7.73,9.9,27.4,27.4,0,0,1-10.57,5,50.13,50.13,0,0,1-23.11,0,27.4,27.4,0,0,1-10.57-5,25.72,25.72,0,0,1-7.66-9.9Q154.4,124,154.41,114l.15-21.14q0-9,4.87-12.83t14.18-3.83q-.15.9-.3,2.7c-.1,1.11-.17,2.61-.22,4.5s-.08,4.35-.08,7.35l.15,23.25a34.83,34.83,0,0,0,1.2,10.13,14.69,14.69,0,0,0,3.23,5.92,10.25,10.25,0,0,0,4.5,2.85,17.21,17.21,0,0,0,10,0,10.25,10.25,0,0,0,4.5-2.85,14.69,14.69,0,0,0,3.23-5.92,34.83,34.83,0,0,0,1.2-10.13l.15-21.14q0-9,4.95-12.83t14.25-3.83q-.15.9-.3,2.7c-.1,1.11-.17,2.61-.22,4.5s-.08,4.35-.08,7.35Z" transform="translate(-1.5)" style="fill:#282828"/><path d="M401.5,114q0,10.06-3,16.35a26.42,26.42,0,0,1-7.72,9.9,27.44,27.44,0,0,1-10.58,5,50.13,50.13,0,0,1-23.11,0,27.4,27.4,0,0,1-10.57-5,25.79,25.79,0,0,1-7.65-9.9q-2.92-6.3-2.93-16.35l.15-21.14q0-9,4.88-12.83t14.17-3.83q-.15.9-.3,2.7c-.1,1.11-.17,2.61-.22,4.5s-.08,4.35-.08,7.35l.15,23.25a34.83,34.83,0,0,0,1.2,10.13,14.69,14.69,0,0,0,3.23,5.92,10.25,10.25,0,0,0,4.5,2.85,17.21,17.21,0,0,0,10.05,0,10.25,10.25,0,0,0,4.5-2.85,14.69,14.69,0,0,0,3.23-5.92A34.83,34.83,0,0,0,382.6,114l.15-21.14q0-9,4.95-12.83T402,76.18q-.15.9-.3,2.7c-.1,1.11-.17,2.61-.22,4.5s-.08,4.35-.08,7.35Z" transform="translate(-1.5)" style="fill:#282828"/><path d="M431.64,78a32.36,32.36,0,0,1,15.16-3.45,30.64,30.64,0,0,1,13.12,2.85A34.69,34.69,0,0,1,470.5,85a36.45,36.45,0,0,1,9.9,25.5,39.86,39.86,0,0,1-2.4,13.88,36,36,0,0,1-6.75,11.47,31.86,31.86,0,0,1-10.58,7.65,32.92,32.92,0,0,1-13.87,2.85,30.5,30.5,0,0,1-13.13-2.85,34,34,0,0,1-10.58-7.65A35.9,35.9,0,0,1,416,124.56a37.21,37.21,0,0,1-2.62-14V57.28q0-9,4.87-12.82t14.18-3.83c-.1.6-.2,1.5-.3,2.71s-.17,2.6-.22,4.5-.08,4.34-.08,7.34v4.73c0,2.25,0,4.63-.07,7.12s-.08,4.81-.08,6.9Zm15.16,55.5a14.44,14.44,0,0,0,4.57-.9,12.92,12.92,0,0,0,5-3.37,19.55,19.55,0,0,0,4.05-7.05,35.31,35.31,0,0,0,1.65-11.78,35.24,35.24,0,0,0-1.65-11.77,19.55,19.55,0,0,0-4.05-7,13,13,0,0,0-5-3.38,12.08,12.08,0,0,0-9.15,0,13,13,0,0,0-5,3.38,19.55,19.55,0,0,0-4.05,7,35.24,35.24,0,0,0-1.65,11.77,35.31,35.31,0,0,0,1.65,11.78,19.55,19.55,0,0,0,4.05,7.05,12.92,12.92,0,0,0,5,3.37A14.45,14.45,0,0,0,446.8,133.48Z" transform="translate(-1.5)" style="fill:#282828"/><path d="M544.93,130.33a10.89,10.89,0,0,1,3.45,3.6l.45.45-.45.45a35.58,35.58,0,0,1-26.56,11.55,30.83,30.83,0,0,1-13-2.77,34,34,0,0,1-10.73-7.73A35.9,35.9,0,0,1,491,124.56a37.21,37.21,0,0,1-2.62-14,41.45,41.45,0,0,1,2.32-14A35.11,35.11,0,0,1,497.37,85,32.33,32.33,0,0,1,508,77.38a33.08,33.08,0,0,1,13.87-2.85,37.8,37.8,0,0,1,9.23,1.28,31.94,31.94,0,0,1,9.38,4,23.25,23.25,0,0,1,7.2,7.27,19.77,19.77,0,0,1,2.85,10.8,15.18,15.18,0,0,1-3.15,10,22.89,22.89,0,0,1-7.5,6,32.75,32.75,0,0,1-9.23,3,51.72,51.72,0,0,1-8.48.82,60.65,60.65,0,0,1-9.67-.67c-2.75-.45-4.63-.77-5.63-1a24.51,24.51,0,0,0,2.4,8.78,18.25,18.25,0,0,0,4,5.32,12.43,12.43,0,0,0,4.5,2.63,14.23,14.23,0,0,0,4.05.67,29.24,29.24,0,0,0,6-.6,42.93,42.93,0,0,0,5.1-1.35c1.5-.5,2.92-1,4.27-1.5a11.42,11.42,0,0,1,4-.75A6.92,6.92,0,0,1,544.93,130.33ZM521.82,87.28a21.15,21.15,0,0,0-3.9.83,12.56,12.56,0,0,0-4.42,2.48,17.18,17.18,0,0,0-4,5.09,25.4,25.4,0,0,0-2.55,8.4,47.5,47.5,0,0,0,6.83,1.43,35,35,0,0,0,8.85.22,17.86,17.86,0,0,0,7.8-2.55c2.25-1.39,3.47-3.75,3.68-7.05a7.35,7.35,0,0,0-2.93-6.45C529.05,87.88,525.92,87.09,521.82,87.28Z" transform="translate(-1.5)" style="fill:#282828"/><path d="M559.57,108.73q0-10,2.93-16.42a25.09,25.09,0,0,1,18-14.85A53.08,53.08,0,0,1,592,76.18h7.35a14.72,14.72,0,0,1,.3,5.85,8.62,8.62,0,0,1-2,4.35c-1.15,1.41-3,2.25-5.62,2.55a25.75,25.75,0,0,0-5,1.13,10.89,10.89,0,0,0-4.43,2.85,15.41,15.41,0,0,0-3.22,5.77,32.14,32.14,0,0,0-1.28,10v21.75q0,4.5.08,7.28c0,1.85.12,3.33.22,4.42s.2,2.1.3,2.7q-9.15,0-14.1-3.82t-4.95-12.83Z" transform="translate(-1.5)" style="fill:#282828"/><path d="M623.58,54c-2.09,3.51-5,5.25-8.7,5.25a9.8,9.8,0,0,1-4.5-1,9.31,9.31,0,0,1-3.45-3.52,10.1,10.1,0,0,1,.15-9.82,9.93,9.93,0,0,1,3.75-4,9.58,9.58,0,0,1,4.95-1.43,8.76,8.76,0,0,1,4.35,1.2,8.17,8.17,0,0,1,3.61,3.46,10.2,10.2,0,0,1-.16,9.89Zm11.71,77.4a5.26,5.26,0,0,1-2.55,1.73,6.77,6.77,0,0,1-3.6.37,5.22,5.22,0,0,1-3.15-1.87q-1.35-1.58-1.35-5.18V90.59q0-4.5.07-7.28c0-1.85.12-3.32.23-4.43s.19-2.14.3-2.85c-6.21,0-10.91,1.31-14.11,3.9s-4.8,6.91-4.8,12.91l-.15,35.39a23,23,0,0,0,1.13,7.2,16.19,16.19,0,0,0,3.45,6,15.77,15.77,0,0,0,5.77,4,16.82,16.82,0,0,0,8.11,1c3.19-.2,5.55-1.12,7.05-2.77a12.85,12.85,0,0,0,3-5.18A20,20,0,0,0,635.29,131.38Z" transform="translate(-1.5)" style="fill:#282828"/><path d="M677.76,127.33a4.93,4.93,0,0,0-1.43-4.27,18.44,18.44,0,0,0-5-3.3q-3.23-1.58-7.57-3.38a61.55,61.55,0,0,1-9.15-4.8,20.64,20.64,0,0,1-5.93-5,19.29,19.29,0,0,1-3.38-6.3,20.17,20.17,0,0,1-.9-6.9,19.53,19.53,0,0,1,1.65-7,17.39,17.39,0,0,1,3.9-5.54,21.59,21.59,0,0,1,5.33-3.68,24.79,24.79,0,0,1,5.93-2,29.23,29.23,0,0,1,5.55-.6h1.8a35.34,35.34,0,0,1,25.8,13.06l.45.44-.45.6a10.62,10.62,0,0,1-3.3,3.15,6.76,6.76,0,0,1-3.75,1.06,10.3,10.3,0,0,1-4.05-.83c-1.3-.55-2.7-1.13-4.2-1.73-1.9-.79-3.68-1.47-5.33-2a15.77,15.77,0,0,0-5-.83,7.4,7.4,0,0,0-5,1.43,5.5,5.5,0,0,0-1.95,3.37,5.23,5.23,0,0,0,1.8,4.73,21.22,21.22,0,0,0,6.15,3.52q4.65,2,9.9,4.28a39.25,39.25,0,0,1,9.3,5.7,22.12,22.12,0,0,1,6.15,8.1q2.1,4.72.45,11.47a22.17,22.17,0,0,1-2.55,5.63,19.16,19.16,0,0,1-5,5.32,28.41,28.41,0,0,1-7.8,4,33.06,33.06,0,0,1-10.73,1.57,10.28,10.28,0,0,1-2-.15,35,35,0,0,1-14.18-3.75,34.3,34.3,0,0,1-11.63-9.15l-.45-.45.45-.6a8.49,8.49,0,0,1,1.65-2l1.65-1.35a8,8,0,0,1,3.6-.9,10.38,10.38,0,0,1,4.06.83c1.29.55,2.7,1.12,4.2,1.72a26.53,26.53,0,0,0,4.72,1.8,30.51,30.51,0,0,0,5.78,1c3.6,0,6.17-.69,7.72-2.1A7.23,7.23,0,0,0,677.76,127.33Z" transform="translate(-1.5)" style="fill:#282828"/></svg>