<svg xmlns="http://www.w3.org/2000/svg" xmlns:xlink="http://www.w3.org/1999/xlink" viewBox="0 0 221.5 201.82"><defs><style>.cls-1{fill:none;}.cls-2{fill:#ed2024;}.cls-3{fill:#282828;}.cls-4{clip-path:url(#clip-path);}</style><clipPath id="clip-path" transform="translate(-15.11)"><rect id="MASK" class="cls-1" y="119.54" width="256.59" height="104.33"/></clipPath></defs><title>logo</title><g id="Layer_2" data-name="Layer 2"><g id="Logo"><path class="cls-2" d="M29.41,40.88C10.52,56.71,9.32,187.44,32,200.15s204.65-50.23,204.65-79.9S48.3,25.06,29.41,40.88ZM63,161.49c-18.15-6.81-22.4-69.17-1.52-82.78s160.74,66,160.74,41.27S81.16,168.29,63,161.49Z" transform="translate(-15.11)"/><g id="layer1"><path class="cls-3" d="M175.91,18.5l-.68,1.66-.65-1.11-10.2.11V15.37h0l-5.79.11L158.35,17l-1.68.13c-.06-.3-.13-.61-.2-.95a23.33,23.33,0,0,1-.41-4.33,5.84,5.84,0,0,0,3.34-2,2.08,2.08,0,0,0-.72-3c-.23-.17-.51-.36-.83-.55-1.81-1-2.89-1.67-3.23-1.93-.14,0-1.21-.88-3.2-2.49A11.48,11.48,0,0,0,150.1,1a7.24,7.24,0,0,0-3.65-1h-.18a16.59,16.59,0,0,0-6.87,1.74,11.54,11.54,0,0,0-4.84,4,11.59,11.59,0,0,0-1.19,2.59c-.09.09-.59,2.08-1.5,6-.12.43-.39,1.2-.84,2.32q-1.93-1.51-5-3.65l-.1.11a12.19,12.19,0,0,0-2.84,3.3,7,7,0,0,0-1.1-.09q-3.47,0-6.14,3.54-3.24,4-8.23,16.54-2.7,6.83-4.4,12.31c-.18.6-.35,1.19-.53,1.77q-.64,2.27-1,3.93-.89,6.72-1.34,7.36a92,92,0,0,1-4.65,10.49l-.67,2.11-2.64,8.3.63,13.51c.94-.4,1.85-.77,2.73-1.1.26,1.29.5,2.33.72,3.16l3.81,11c.71,2.37,1.46,5.38,2.24,9q3,14.1,2.56,18.07a5.51,5.51,0,0,1-1.67,3.37q-6.66,6.09-11.8,11.49c-2,2.06-4.79,5-8.4,8.88,10.84-2.85,22.87-6.37,34.92-10.18l4.18-3.73,2.94-24.38.07,0,11.41,9.6L136.37,144c6.13-2.09,12.1-4.18,17.75-6.23.08-.91.13-1.56.13-2a28.41,28.41,0,0,0-.59-8.78q.26-2.07-8-14.71-1.23-2.19-7.6-10.55l.37.13a143.36,143.36,0,0,1-8.17-14.88,27.89,27.89,0,0,1-1.79-4.85q-1.86-6,.34-14.62l3.59-7.22L134,57.28a1.48,1.48,0,0,1,.13.08l.12.15v-.07q7.86,5,11.11,5h0a2.59,2.59,0,0,0,1.35-.32c.53-.25.95-1.28,1.25-3.1a5.13,5.13,0,0,0,.61.08,5.27,5.27,0,0,0,.78,0h0a6.51,6.51,0,0,0,5.07-2.68,32.3,32.3,0,0,0,5.36-10.66s0,0,0,0-.16.15-.36.45c.1-.34.18-.68.26-1-.28-.34-.55-.67-.83-1a79.42,79.42,0,0,0,.77-9A2.59,2.59,0,0,1,160,34a2.2,2.2,0,0,1,1.33-.83l4.44-.79a10.38,10.38,0,0,0,2.05-.7,3.17,3.17,0,0,0,2-2.38.28.28,0,0,1,.13,0,.32.32,0,0,1,.16,0,4.93,4.93,0,0,0,1.32.45h0a1,1,0,0,0,.68-.29,2,2,0,0,0,.54-1.16v-1l1.9-.09.61-.8.45,1.49,5.81-.18.1-9.15ZM150.07,39.4H150l-1.29,1.77c-.94-.93-1.78-1.78-2.5-2.56l2.39-1.43c.61-.4,1.15-.74,1.6-1.06a14.62,14.62,0,0,0,1.33-1Zm3.41-10-.64,1.87c-1.52,1.75-2.53,2.88-3,3.41a5,5,0,0,1-1.36,1.12,1.3,1.3,0,0,1-.54.13,1.48,1.48,0,0,1-.49-.1,2.72,2.72,0,0,1-.49-.24,14.91,14.91,0,0,0-1.44-.89,2.16,2.16,0,0,0-.8-.27h-.2a2.9,2.9,0,0,0-1.45.45c-.69-1-1.76-2.73-3.22-5.17L143,28.11A5.38,5.38,0,0,0,145.2,31a8.9,8.9,0,0,0,4.08,1.11h.43c.19,0,.36-.21.52-.51a33.45,33.45,0,0,1,2.05-4.46,9.41,9.41,0,0,1,1.46-2A17.42,17.42,0,0,1,153.48,29.42Z" transform="translate(-15.11)"/></g><g class="cls-4"><path class="cls-2" d="M29.41,40.88C10.52,56.71,9.32,187.44,32,200.15s204.65-50.23,204.65-79.9S48.3,25.06,29.41,40.88ZM63,161.49c-18.15-6.81-22.4-69.17-1.52-82.78s160.74,66,160.74,41.27S81.16,168.29,63,161.49Z" transform="translate(-15.11)"/></g></g></g></svg>