<svg xmlns="http://www.w3.org/2000/svg" xmlns:xlink="http://www.w3.org/1999/xlink" viewBox="0 0 189.91 197.72"><defs><clipPath id="a" transform="translate(-12.95)"><rect y="116.86" width="220" height="102.53" style="fill:none"/></clipPath></defs><title>logo</title><path d="M25.22,39.57C9,55.12,8,183.59,27.4,196.08s175.47-49.36,175.47-78.52S41.41,24,25.22,39.57ZM54,158.09c-15.56-6.69-19.21-68-1.31-81.35s137.82,64.8,137.82,40.55S69.59,164.77,54,158.09Z" transform="translate(-12.95)" style="fill:#ed2024"/><path d="M135.47,21.3a13.86,13.86,0,0,1-.24,3.59l-.57,1.57h0c-1.36,1.48-2.27,2.45-2.72,2.89a4.18,4.18,0,0,1-1.21.95,1.4,1.4,0,0,1-.49.11,1.35,1.35,0,0,1-.43-.08,3.41,3.41,0,0,1-.44-.21c-.79-.48-1.22-.74-1.29-.76a2.26,2.26,0,0,0-.72-.22h-.19a2.64,2.64,0,0,0-1.29.39h0Q125,28.25,123,25.14h0l2.82-1.36a4.62,4.62,0,0,0,2,2.48,8.45,8.45,0,0,0,3.66.94l.4,0a.75.75,0,0,0,.46-.42A28.14,28.14,0,0,1,134.15,23a8.05,8.05,0,0,1,1.32-1.68Zm-2,8.37-1.33,3.66h0L131,34.82q-1.28-1.18-2.25-2.16h0l2.14-1.22,1.44-.89c.43-.29.83-.58,1.2-.88ZM122.6,1.47a10.25,10.25,0,0,0-4.33,3.38A9.31,9.31,0,0,0,117.2,7q-.14.12-1.35,5.08a20.75,20.75,0,0,1-.75,2h0q-1.74-1.29-4.44-3.08l-.1.08a10.82,10.82,0,0,0-2.54,2.8,6.71,6.71,0,0,0-1-.08,7,7,0,0,0-5.51,3q-2.89,3.38-7.38,14-2.81,6.75-4.41,11.92c-.39,1.28-.68,2.39-.89,3.33-.53,3.79-.94,5.86-1.21,6.23a74.77,74.77,0,0,1-4.16,8.87l-3,8.8.57,11.43c.84-.34,1.66-.65,2.45-.93h0c.23,1.09.45,2,.64,2.67l3.42,9.35q1,3,2,7.65,2.64,11.93,2.29,15.29a4.6,4.6,0,0,1-1.5,2.85q-6,5.15-10.58,9.73-5.4,5.24-19.61,19.78l-.11.11c.12.36.25.7.39,1h0a10.76,10.76,0,0,0-4.34,4.84q-1.05,2.4-.55,8.6a80.71,80.71,0,0,0,10.25,1.35h0l-.09-1.24h0q3.28,2.1,4.56,2.1h.16l2.47-.05h.45l6.1.34,1.63,0c.49,0,.94,0,1.37,0a10.48,10.48,0,0,0,5-1.23,2.83,2.83,0,0,0,1.38-2,1.75,1.75,0,0,0-.92-1.79,4.12,4.12,0,0,0-1.52-.43s-1.22-.11-3.57-.23c-.51,0-1-.09-1.36-.16a8.76,8.76,0,0,1-2-.55q-2.33-.87-5.42-4.56h0l.71,0,.83-3.45,31.71-26.68L110,103.08h0l.07,0h0l10.23,8.11h0l-1.39,38.31h0a7.21,7.21,0,0,0-.53.74h0a6.06,6.06,0,0,0-.62,1.25c-.62,1.46-.75,4.07-.39,7.81a73.42,73.42,0,0,0,9.32,1.11h0l-.09-1.13h0q3,1.86,4.16,1.86h.15c1.25,0,2.06-.07,2.44-.07h.21l5.55.24h1.09c.59,0,1.14,0,1.63,0a9.63,9.63,0,0,0,4.51-1.17,2.58,2.58,0,0,0,1.24-1.83,1.61,1.61,0,0,0-.86-1.61,3.62,3.62,0,0,0-1.38-.37s-1.12-.09-3.25-.17c-.46,0-.87-.08-1.24-.13a8,8,0,0,1-1.84-.48,12.5,12.5,0,0,1-4.52-3.55h.06a14.93,14.93,0,0,1-.66-3.65l.53-8.34-.51-4.64a21.58,21.58,0,0,1-.06-2.27l.24-3.4q1.83-12.74,1.83-14.76a22.6,22.6,0,0,0-.53-7.43q.24-1.76-7.15-12.43a110.32,110.32,0,0,0-6.81-8.93h0l.33.11q-7.71-11.92-8.93-16.69-1.67-5.05.3-12.37l4.59-8.73.12.07h0l.11.13v-.06h0q7.08,4.21,10,4.21a2.41,2.41,0,0,0,1.21-.28c.48-.21.85-1.08,1.12-2.61h0l.56.06a5.32,5.32,0,0,0,.69,0h0a6,6,0,0,0,4.55-2.27,27,27,0,0,0,4.81-9s0,0,0,0h0s-.15.13-.32.38h0c.08-.29.15-.58.22-.87-.25-.3-.49-.58-.74-.84h0a63.69,63.69,0,0,0,.69-7.64,2.17,2.17,0,0,1,.3-1,1.85,1.85,0,0,1,1.18-.71l4-.67a9,9,0,0,0,1.85-.59,2.77,2.77,0,0,0,1.81-2l.12,0,.14,0a4.79,4.79,0,0,0,1.18.38h0a.82.82,0,0,0,.61-.24,1.66,1.66,0,0,0,.49-1v-.86h0l1.7-.08.55-.68.4,1.26,5.22-.15.08-7.75-5,0-.62,1.4-.58-.93-9.15.09V13h0l-5.19.09-.17,1.25-1.51.11h0c-.06-.25-.12-.51-.18-.8a18.59,18.59,0,0,1-.36-3.67h0a5.17,5.17,0,0,0,3-1.68c.62-1,.4-1.81-.65-2.56-.21-.15-.45-.3-.74-.47-1.63-.86-2.59-1.4-2.9-1.62-.13,0-1.09-.75-2.87-2.11A10.91,10.91,0,0,0,132.2.81,6.93,6.93,0,0,0,128.92,0h-.15A15.53,15.53,0,0,0,122.6,1.47Z" transform="translate(-12.95)" style="fill:#282828"/><g style="clip-path:url(#a)"><path d="M25.22,39.57C9,55.12,8,183.59,27.4,196.08s175.47-49.36,175.47-78.52S41.41,24,25.22,39.57ZM54,158.09c-15.56-6.69-19.21-68-1.31-81.35s137.82,64.8,137.82,40.55S69.59,164.77,54,158.09Z" transform="translate(-12.95)" style="fill:#ed2024"/></g></svg>