<svg xmlns="http://www.w3.org/2000/svg" xmlns:xlink="http://www.w3.org/1999/xlink" viewBox="0 0 4096.5 1005.05"><defs><linearGradient id="487e52d9-cdcd-461a-988b-9215918e566e" x1="250.6" y1="1212.53" x2="3456.02" y2="-949.55" gradientUnits="userSpaceOnUse"><stop offset=".13" stop-color="#ff4035"/><stop offset=".14" stop-color="#ff4136"/><stop offset=".37" stop-color="#ff8471"/><stop offset=".58" stop-color="#feb99f"/><stop offset=".76" stop-color="#fedfc1"/><stop offset=".91" stop-color="#fef6d5"/><stop offset="1" stop-color="#feffdd"/></linearGradient><linearGradient id="a020de10-eb2d-4e12-9c73-c5c9080b6717" x1="1904.29" y1="568.16" x2="1691.74" y2="679.55" gradientUnits="userSpaceOnUse"><stop offset="0" stop-color="#ff3e3b"/><stop offset=".08" stop-color="#ff3f3c" stop-opacity=".96"/><stop offset=".22" stop-color="#ff4340" stop-opacity=".87"/><stop offset=".4" stop-color="#ff4946" stop-opacity=".71"/><stop offset=".61" stop-color="#ff524f" stop-opacity=".49"/><stop offset=".84" stop-color="#ff5d5a" stop-opacity=".21"/><stop offset="1" stop-color="#ff6562" stop-opacity="0"/></linearGradient><linearGradient id="87bc7153-a7fb-4e00-a9c7-4addf9b83cb4" x1="1158.06" y1="409.21" x2="1008.65" y2="611.87" xlink:href="#a020de10-eb2d-4e12-9c73-c5c9080b6717"/><linearGradient id="89b27e7c-829d-480d-ac24-e932eae4b598" x1="2691.13" y1="600.65" x2="2665.86" y2="427.21" xlink:href="#a020de10-eb2d-4e12-9c73-c5c9080b6717"/><linearGradient id="0f043080-0767-449c-a759-cc95cac30c7b" x1="2281.89" y1="262.94" x2="2439.14" y2="262.94" gradientTransform="rotate(41.71 2381.109 291.844)" xlink:href="#a020de10-eb2d-4e12-9c73-c5c9080b6717"/><linearGradient id="56c8435a-99ef-4af4-9337-c89da549f7a2" x1="1762.7" y1="444.66" x2="1862.63" y2="378.04" xlink:href="#a020de10-eb2d-4e12-9c73-c5c9080b6717"/><linearGradient id="8b15c30c-7145-449f-99cb-af4beed22ea8" x1="2063.24" y1="759.89" x2="2313.94" y2="699.27" xlink:href="#a020de10-eb2d-4e12-9c73-c5c9080b6717"/><linearGradient id="3c3ec039-80ba-4866-ac50-01d8cb552de9" x1="1624.61" y1="615.35" x2="1471.84" y2="653.25" xlink:href="#a020de10-eb2d-4e12-9c73-c5c9080b6717"/><linearGradient id="e731ec5e-7aee-46b6-8e77-cfdf1c1cb505" x1="1091.98" y1="307.28" x2="939.21" y2="345.18" gradientTransform="rotate(122 1057.827 358.747)" xlink:href="#a020de10-eb2d-4e12-9c73-c5c9080b6717"/></defs><g id="8599c9be-5781-4544-a4ee-6d4c1d80067f" data-name="Layer 2"><g id="b01db3b8-b57e-4db0-b28d-ed535cd3cac0" data-name="Header"><g id="dd730871-157d-450e-ac3c-4c94776b7c2b" data-name="Lines"><g opacity=".51"><path d="M2452 513.6q-1.68 12.46-3.74 24.55c-.68 4-1.36 8.08-2.1 12.09s-1.43 8-2.21 12q-4.53 24-9.77 47.83c-3.5 15.89-7.22 31.73-11.31 47.52l-3.17 11.83-3.37 11.82c-1.17 3.94-2.43 7.87-3.63 11.8-.64 2-1.34 3.93-2 5.9s-1.3 3.92-2.06 5.89c-1.56 3.94-3 7.89-4.78 11.77s-3.6 7.6-5.54 11.26c-3.86 7.35-8 14.45-12.33 21.41a466.43 466.43 0 0 1-28.05 40.12 350.79 350.79 0 0 1-32.41 36.48 192.79 192.79 0 0 1-18.5 15.89 90.75 90.75 0 0 1-21 12 89.76 89.76 0 0 0 19.65-13.75 188.17 188.17 0 0 0 16.69-17.2 345.41 345.41 0 0 0 28.44-38.56 453.4 453.4 0 0 0 23.71-41.48c3.55-7.09 6.9-14.26 9.9-21.5 1.51-3.61 2.88-7.24 4.17-10.86s2.25-7.33 3.33-11c.53-1.84.94-3.79 1.42-5.67s.94-3.79 1.37-5.71c.82-3.87 1.67-7.71 2.45-11.59l2.21-11.7 2-11.77c2.58-15.74 4.81-31.58 6.82-47.44s3.78-31.77 5.29-47.66 2.82-31.84 3.47-47.3z" fill="#ff8271"/></g><g opacity=".75"><path d="M2445.23 516.48q7.56 34.71 17.46 69c3.31 11.41 6.79 22.78 10.52 34.08 1.82 5.67 3.78 11.29 5.7 16.93s3.93 11.25 6 16.83c4.07 11.21 8.42 22.32 12.89 33.39l3.4 8.29 3.49 8.25c2.32 5.52 4.72 11 7.22 16.36a206.33 206.33 0 0 0 17.26 31 105.16 105.16 0 0 0 24.59 25.67 106.77 106.77 0 0 1-27.4-23.51 211.78 211.78 0 0 1-20.73-29.91q-4.62-7.83-8.91-15.78l-4.33-7.94-4.24-8c-5.6-10.69-11.08-21.45-16.31-32.34-2.66-5.43-5.17-10.92-7.75-16.4s-5-11-7.45-16.54c-4.91-11.07-9.58-22.25-14.09-33.5q-13.55-33.76-24.74-68.53z" fill="#ff8271"/></g><g opacity=".51"><path d="M2450.05 511.84a666.46 666.46 0 0 0 25.78 73.34 415 415 0 0 0 36.48 68.43 304.94 304.94 0 0 0 50.78 58.73c19.45 17.26 41.53 31.82 65.73 42-24.75-8.77-47.9-22.14-68.65-38.52a311.83 311.83 0 0 1-55.27-56.94 426.76 426.76 0 0 1-41.46-68 681.15 681.15 0 0 1-30.69-73.43z" fill="#ff8271"/></g><g opacity=".76"><path d="M2438.4 518.76c6.12 24.06 11.9 48.25 16.95 72.61s9.38 48.88 12.51 73.58a586.41 586.41 0 0 1 5 74.41c-.07 24.85-2.11 49.77-7.67 73.89 4.05-24.42 4.51-49.21 3.05-73.75a578 578 0 0 0-9.55-73.11c-4.6-24.15-10.39-48.06-16.86-71.79s-13.68-47.26-21.23-70.72z" fill="#ff8271"/></g><g opacity=".4"><path d="M2446.9 517.27a144.91 144.91 0 0 1-6.49 31.05c-3 9.75-6.64 19.08-10.5 28.18-7.72 18.21-16.37 35.66-25.1 53s-17.63 34.36-26.07 51.55q-6.34 12.9-12.18 25.93c-3.88 8.69-7.51 17.45-10.64 26.32a166.75 166.75 0 0 0-7.35 26.87c-.1.56-.22 1.12-.3 1.69l-.2 1.68-.41 3.37c-.25 2.34-.44 4.81-.67 7.21-.4 4.84-.93 9.67-1.44 14.49-2.07 19.3-4.94 38.53-8.81 57.55a446.18 446.18 0 0 1-15 56.17 359 359 0 0 1-23 53.19 358.11 358.11 0 0 0 19.85-54.15 442.46 442.46 0 0 0 11.73-56.37c2.76-19 4.53-38.07 5.49-57.21.24-4.79.49-9.58.62-14.37.09-2.41.14-4.75.26-7.22l.24-3.83.13-1.92c0-.63.15-1.25.22-1.88a178.58 178.58 0 0 1 6.24-29.3c2.76-9.49 6-18.76 9.48-27.9s7.13-18.17 10.92-27.11c7.57-17.89 15.51-35.52 23.21-53.13s15.19-35.21 21.54-52.91c3.18-8.84 6-17.72 8.23-26.53a120.07 120.07 0 0 0 4-25.73z" fill="#ff8271"/></g><g opacity=".88"><path d="M2421.63 519.84a824.49 824.49 0 0 0 40.62 325.07A828.47 828.47 0 0 1 2414 519.34z" fill="#ff8271"/></g><g opacity=".23"><path d="M2446.1 503.65a461.41 461.41 0 0 0 70.78 95.93 497.31 497.31 0 0 0 202 127.47 468.33 468.33 0 0 0 118.92 23.05 471.14 471.14 0 0 1-120.41-18.29 507.35 507.35 0 0 1-211.08-121.68 478.71 478.71 0 0 1-77.45-96.49z" fill="#ff8271"/></g><g opacity=".59"><path d="M2450.24 510.89c3.71 19 11.57 37.09 21.2 54.21a407.76 407.76 0 0 0 33 49.21c24.22 31.34 52.81 59.26 84 83.83a598.34 598.34 0 0 0 100.88 63.41 712.86 712.86 0 0 0 111 44.16 714 714 0 0 1-112-42.08 601.51 601.51 0 0 1-102.69-61.82c-31.95-24.16-61.43-51.84-86.64-83.19a415.22 415.22 0 0 1-34.57-49.48c-10.22-17.4-18.88-36.18-23.24-56.39z" fill="#ff8271"/></g><g opacity=".24"><path d="M2446.79 512.27a2134.08 2134.08 0 0 1 138.88 492.78 2128.68 2128.68 0 0 0-147.4-489.13z" fill="#ff8271"/></g><g opacity=".83"><path d="M2445.67 509.68c33 79.08 66.28 158.2 94.85 239.12 14.28 40.45 27.36 81.34 38.53 122.75a1176.08 1176.08 0 0 1 27 125.68 1173.63 1173.63 0 0 0-29.24-125.06c-11.9-41.13-25.68-81.69-40.66-121.79-29.95-80.22-64.6-158.56-99-237z" fill="#ff8271"/></g><g opacity=".65"><path d="M2446.17 518.69c0 10.78-.48 21.35-1.08 31.87s-1.36 21-2.08 31.41c-1.41 20.87-2.77 41.68-3 62.41-.1 10.36 0 20.71.75 31a166.32 166.32 0 0 0 4.49 30.1l1 3.6 1.17 3.73 2.35 7.48 2.35 7.48 2.41 7.45c3.18 10 6.56 19.83 9.92 29.72 13.79 39.38 29.27 78.29 49.15 115 19.59 36.84 44 71.26 73.53 101-30.4-28.83-56-62.68-76.85-99.16-21.14-36.36-37.91-75.08-53-114.27-3.68-9.83-7.38-19.66-10.88-29.56l-2.65-7.41-2.59-7.43-2.58-7.43-1.29-3.73-1.24-3.93a176.31 176.31 0 0 1-5.75-31.78c-1.09-10.62-1.52-21.22-1.74-31.8-.39-21.16.36-42.2 1.13-63.15.4-10.48.83-20.93 1.12-31.33s.47-20.77.12-30.93z" fill="#ff8271"/></g></g><path id="7ce7aa83-dc51-4a7d-969b-5e25b95251e4" data-name="BG" d="M0 0h4096.5S3981 78 3830 93c-127.13 12.63-618.38 14.58-895 166s-876 490-1241 520c-313 30-516-123-846-109S17.49 858.63 0 841z" fill="url(#487e52d9-cdcd-461a-988b-9215918e566e)"/><g id="1c435b1d-261c-48af-97e2-cc6edeee550b" data-name="Dashed" fill="#ff3e3b"><path d="M2241.06 448.8l-.2 23a2.91 2.91 0 0 1-5.81 0l-.2-23a3.11 3.11 0 0 1 6.21-.05zm-.37 42l-.19 23a2.55 2.55 0 0 1-5.09 0l-.19-23a2.74 2.74 0 1 1 5.47 0zm-.77 42.48a17.9 17.9 0 0 1-2.61 6.05 16.34 16.34 0 0 1-4.7 4.67 15 15 0 0 1-6.25 2.35 19 19 0 0 1-3.2.15h-2.87a2.18 2.18 0 0 1 0-4.36 50.25 50.25 0 0 0 5.42-.18 10.54 10.54 0 0 0 4.38-1.74 11.78 11.78 0 0 0 3.34-3.44 13.23 13.23 0 0 0 1.84-4.48 2.38 2.38 0 0 1 4.66 1zm-38.63 13.03l-23-.19a1.82 1.82 0 0 1 0-3.64l23-.2a2 2 0 0 1 0 4zm-42-.31l-23-.2a1.44 1.44 0 0 1-1.44-1.46 1.46 1.46 0 0 1 1.44-1.45l23-.2a1.66 1.66 0 0 1 0 3.31zm-42-.41l-23-.2a1.09 1.09 0 0 1-1.09-1.1 1.11 1.11 0 0 1 1.09-1.09l23-.19a1.29 1.29 0 1 1 0 2.58zm-41.86-.15a22.1 22.1 0 0 0-8.31 2.89l-12.42 6a.7.7 0 0 1-.62-1.25l12.3-6.24h-.06a23.46 23.46 0 0 1 8.92-3.29.93.93 0 0 1 1.06.78.94.94 0 0 1-.78 1.06zm-37.92 17.14l-20.73 10a.27.27 0 0 1-.24-.49l20.52-10.4a.51.51 0 0 1 .46.91zm-37.85 18.22L1993 584l9.19-12.62a.11.11 0 0 1 .16 0 .12.12 0 0 1 0 .17L1993 584l6.58-3.34a.07.07 0 0 1 .1 0 .07.07 0 0 1 0 .1zm13.71-24.8l13.54-18.6a.44.44 0 0 1 .71.52l-13.82 18.38a.28.28 0 0 1-.38.06.27.27 0 0 1-.05-.36zm24.69-33.93a25.74 25.74 0 0 0 4-10.41 31.7 31.7 0 0 0 .28-5.62v-5.75a.76.76 0 0 1 .76-.77.74.74 0 0 1 .76.75v5.75a32.84 32.84 0 0 1-.39 5.83 27 27 0 0 1-4.33 10.85.58.58 0 1 1-1-.65zm4.06-40.78l-.17-23a1.08 1.08 0 0 1 1.07-1.1 1.1 1.1 0 0 1 1.1 1.08l-.18 23a.91.91 0 0 1-.92.9.92.92 0 0 1-.9-.88zm2.67-42.15a15.73 15.73 0 0 1 4.46-4.33 14.43 14.43 0 0 1 5.9-2.14c.52-.06 1-.1 1.58-.11h10.07a1.41 1.41 0 1 1 0 2.81h-10.05a11.15 11.15 0 0 0-1.29.07 11.81 11.81 0 0 0-4.86 1.68 13.15 13.15 0 0 0-3.79 3.57 1.23 1.23 0 0 1-2-1.41zm41.01-6.8l23-.18a1.73 1.73 0 1 1 0 3.45l-23-.17a1.55 1.55 0 0 1 0-3.1zm42-.34l23-.17a2.05 2.05 0 1 1 0 4.1l-23-.18a1.88 1.88 0 0 1 0-3.75zm42-.31l23-.17a2.37 2.37 0 0 1 0 4.74l-23-.18a2.2 2.2 0 0 1 0-4.39zm42-.31l11.5-.09h1.56a16.41 16.41 0 0 1 1.72.16 15.24 15.24 0 0 1 3.34.89 16.52 16.52 0 0 1 5.7 3.76 2.72 2.72 0 0 1-3.87 3.83 11.14 11.14 0 0 0-3.77-2.62 10.56 10.56 0 0 0-2.19-.64c-.38-.05-.76-.1-1.14-.12h-1.32l-11.5-.1a2.51 2.51 0 0 1 0-5zM2199.19 492l-7.65-3.56a1.21 1.21 0 0 1 1-2.19h.06l7.44 4a1 1 0 0 1-.87 1.74zm-18.19-8.46l-7.67-3.51a1.83 1.83 0 1 1 1.52-3.32l.11.05 7.41 4a1.54 1.54 0 0 1-1.37 2.75zm-18.17-8.36l-7.65-3.57a2.43 2.43 0 0 1 2.06-4.4l.11.06 7.44 4a2.2 2.2 0 0 1-2 3.93zm-9.46-1.68c.06 2.81.05 5.62.07 8.43a2.72 2.72 0 0 1-5.44 0c0-2.81 0-5.62.06-8.43a2.66 2.66 0 0 1 5.31 0zm.06 20.02c0 2.81 0 5.62-.08 8.43a2.64 2.64 0 0 1-5.27 0c0-2.81-.07-5.62-.07-8.43a2.71 2.71 0 1 1 5.42 0zm-.3 20.02l-.06 2.11v.13a.49.49 0 0 0 0-.12 1.29 1.29 0 0 0-.06-.25 1.11 1.11 0 0 0-.28-.42 1.07 1.07 0 0 0-.89-.31l-.25.05h-.15.06l.47-.23 1-.45 1.91-.89a2.2 2.2 0 0 1 2 3.93l-1.86 1-.93.49-.47.25h-.05l-.18.08a2.83 2.83 0 0 1-.35.14 3.2 3.2 0 0 1-.76.15 3.54 3.54 0 0 1-2.8-1 3.35 3.35 0 0 1-.82-1.32 2.81 2.81 0 0 1-.18-.76v-.51l-.05-2.11a2.41 2.41 0 0 1 4.82-.12zm12.22-5.21l7.66-3.53a1.59 1.59 0 0 1 1.42 2.84l-7.42 4a1.86 1.86 0 0 1-1.77-3.27zm18.17-8.43l7.64-3.58a1.06 1.06 0 0 1 .94 1.89l-7.44 4a1.27 1.27 0 1 1-1.2-2.24zm-41.4-8.27l-7.68-3.5a.87.87 0 0 1 .73-1.59h.06l7.4 4a.57.57 0 0 1 .23.78.58.58 0 0 1-.74.31zm-18.29-8.2l-7.73-3.38a1.85 1.85 0 0 1 1.48-3.39l.17.09 7.35 4.15a1.42 1.42 0 0 1-1.27 2.53zm-18.33-8.11l-3.83-1.75-3.82-1.8a2.61 2.61 0 0 1 2.23-4.71l.1.05 3.73 2 3.7 2a2.36 2.36 0 0 1-2.11 4.22zm-9.3-1.82v8.43a2.68 2.68 0 0 1-5.36 0c0-2.81-.07-5.62-.06-8.43a2.74 2.74 0 0 1 5.47 0zm-.2 20.02c0 2.81-.15 5.62-.24 8.43a2.25 2.25 0 0 1-4.49 0c-.08-2.81-.19-5.62-.24-8.43a2.49 2.49 0 1 1 5-.08zm-.73 20.02l-.09 2.11v-.03a.45.45 0 0 0-.13-.17.44.44 0 0 0-.37-.09h-.09.06l.48-.21 1-.43 1.93-.86a1.44 1.44 0 0 1 1.28 2.57l-1.84 1-.92.52-.47.25-.14.07-.28.11a2.55 2.55 0 0 1-.61.13 2.88 2.88 0 0 1-2.28-.81 2.92 2.92 0 0 1-.68-1.07 3.3 3.3 0 0 1-.15-.62v-.44l-.08-2.11a1.8 1.8 0 0 1 3.6-.15zm13.24-4.39l7.67-3.5a.64.64 0 0 1 .57 1.14l-7.4 4a.94.94 0 1 1-.9-1.65zm18.19-8.39c1.28-.59 2.53-1.22 3.8-1.83s2.52-1.23 3.77-1.88a.24.24 0 0 1 .33.1.24.24 0 0 1-.1.33c-1.27.61-2.53 1.23-3.78 1.89s-2.5 1.27-3.74 1.94a.3.3 0 0 1-.41-.12.3.3 0 0 1 .12-.42z"/></g><g id="40eba836-6d6c-499c-a2a8-7fa82690020d" data-name="Broken" fill="#ff3e3b"><path d="M2384.27 413.67l-34.13 4.33-8-11 2.54-7.24-7.15.91-26.81-36.77a7.59 7.59 0 0 1 .78.22l110.5 38.81c5 1.77 7.49 7.85 5.48 13.56l-14.33 40.79a20.23 20.23 0 0 0-.48 12.08l14.84 52.64-7.11-7.57-48.26-66.22z"/><path d="M2274.88 416.55l37.48 25.81-31 15.55 37.46 18.79v-29.9l11.24 7.75-6.7 3.36 37.46 18.79v-1l67.48 46.48-42.36-22a15.35 15.35 0 0 0-8.24-2.44h-102c-5.34 0-9.66-4.91-9.66-11v-59.26c-.04-5.76 3.87-10.48 8.84-10.93zM2388 486l-6.78-6.66a.09.09 0 0 1 0-.13.11.11 0 0 1 .14 0zm-36.52-34.21l-14.9-13a.72.72 0 0 1-.07-1 .71.71 0 0 1 1-.07l14.66 13.28a.51.51 0 0 1-.68.76zm-46.2-38.7L2289.71 401a1.33 1.33 0 1 1 1.64-2.1l15.35 12.48a1.13 1.13 0 0 1-1.41 1.77zm-48.14-36.22L2241 365.53a2 2 0 0 1 2.25-3.19l16 11.7a1.75 1.75 0 0 1-2 2.84zm-49.86-33.77l-16.69-10.5a2.57 2.57 0 1 1 2.73-4.35h.05l16.54 10.88a2.37 2.37 0 0 1-2.56 4zm-51.5-31.1l-17.24-9.55h-.05a3.19 3.19 0 0 1 3.09-5.58h.06l17.14 10a3 3 0 0 1-3 5.2zm-53.18-28l-17.8-8.39h-.08a3.81 3.81 0 0 1 3.24-6.89h.08l17.78 8.82a3.61 3.61 0 0 1-3.14 6.49zm-54.93-24.13l-18.4-6.84-.13-.05a4.43 4.43 0 0 1 3.08-8.3h.08l18.51 7.31a4.22 4.22 0 0 1-3 7.88zm-56.78-18.77l-9.1-2.31h-.11a4.94 4.94 0 1 1 2.44-9.57h.09l9.26 2.56a4.84 4.84 0 0 1-2.47 9.36zm370.4 230.43l-7.06-6.35a.08.08 0 0 1 .11-.12zm-37.35-31.25l-15.29-11.45a.56.56 0 0 1-.11-.79.57.57 0 0 1 .79-.12l15.12 11.72a.41.41 0 0 1-.49.65zm-47.52-33.71l-16.09-10.29a1.06 1.06 0 0 1 1.14-1.78l15.95 10.58a.9.9 0 0 1-1 1.5zm-49.79-30.25l-16.74-9.15a1.54 1.54 0 1 1 1.48-2.71l16.65 9.47a1.39 1.39 0 0 1-1.35 2.42zm-51.75-26.67l-17.37-7.86h-.05a2 2 0 0 1 1.67-3.71l17.33 8.19a1.87 1.87 0 0 1-1.57 3.4zm-53.67-22.38l-18-6.15h-.09a2.52 2.52 0 0 1 1.63-4.77l18.07 6.51a2.36 2.36 0 0 1-1.56 4.45zm-55.62-16.37c-6.17-1.35-12.38-2.54-18.61-3.51a3 3 0 1 1 .93-5.95c6.35 1.11 12.65 2.42 18.9 3.89a2.85 2.85 0 0 1-1.27 5.56zm-57.14-6.45a152.48 152.48 0 0 0-18.65 1.4 3.5 3.5 0 0 1-1-6.93h.06a163.31 163.31 0 0 1 19.49-1.14 3.34 3.34 0 0 1 .06 6.68zm-54.56 12.86a77.64 77.64 0 0 0-7.63 4.87 3.9 3.9 0 0 1-4.58-6.32h.06a84.63 84.63 0 0 1 8.46-5.21 3.82 3.82 0 0 1 3.69 6.7zm412.23 151.84l-5.47-7.76a.08.08 0 0 1 0-.1.07.07 0 0 1 .1 0zm-25.38-37.77l-9.59-14.68a.46.46 0 1 1 .77-.51l9.38 14.81a.33.33 0 0 1-.56.35zm-29.51-44.67l-9.92-14.45a.85.85 0 0 1 1.4-1l9.71 14.61a.72.72 0 0 1-.2 1 .71.71 0 0 1-1-.19zm-30.9-43.66l-10.6-13.95a1.24 1.24 0 0 1 2-1.5l10.42 14.14a1.11 1.11 0 0 1-.24 1.55 1.09 1.09 0 0 1-1.54-.22zM2247 301.24l-11.59-13.11a1.64 1.64 0 0 1 .14-2.3 1.62 1.62 0 0 1 2.3.14l11.46 13.34a1.51 1.51 0 0 1-2.27 2zm-36.63-38.76l-12.93-11.73-.06-.06a2 2 0 1 1 2.71-3l12.88 12a1.89 1.89 0 0 1-2.56 2.79zm-41.16-33.66q-7.17-4.92-14.65-9.34a2.41 2.41 0 1 1 2.44-4.15q7.57 4.6 14.79 9.73a2.28 2.28 0 0 1-2.61 3.74zm-46.68-24.71l-8.86-3-.14-.05a2.74 2.74 0 1 1 1.76-5.19l9.09 3.23a2.67 2.67 0 0 1-1.75 5zM2307.6 400.5l-5.26-7.92a.05.05 0 0 1 0-.07h.07zm-25.97-38.5l-10.47-14.61a.36.36 0 1 1 .58-.42l10.31 14.74a.25.25 0 0 1-.06.35.25.25 0 0 1-.36-.06zm-33.54-43.32q-6-6.71-12.33-13a.66.66 0 0 1 0-.94.67.67 0 0 1 .94 0q6.33 6.42 12.23 13.23a.56.56 0 1 1-.84.74zm-40.28-36.91q-7.23-5.29-14.83-10.06a1 1 0 0 1-.3-1.33 1 1 0 0 1 1.34-.31q7.59 4.89 14.82 10.29a.87.87 0 0 1-1 1.4zm-47.1-27.67l-16.36-7.34a1.28 1.28 0 0 1 1-2.33l16.37 7.56a1.17 1.17 0 0 1-1 2.14zM2110 233.61l-17-5.69a1.58 1.58 0 1 1 1-3l17 5.9a1.48 1.48 0 0 1-1 2.8zm-52.36-16.3l-9.14-2.54a1.84 1.84 0 1 1 1-3.55l9.13 2.65a1.79 1.79 0 0 1-1 3.44z"/></g><path id="9c332182-98cc-40bb-8890-8486de97b979" data-name="Filled" d="M2564.91 385h-77.39c-3.53 0-6.38 3.25-6.38 7.25v28.56a13.34 13.34 0 0 1-2.35 7.63L2458 458l34.07-17.7a10.21 10.21 0 0 1 5.45-1.61h67.39c3.53 0 6.38-3.25 6.38-7.25v-39.19c0-4-2.85-7.25-6.38-7.25zM2529 412l-22 12.77V400zm26 0l-21 12.77V400z" fill="#ff3e3b"/><g id="a6dd64ef-ca4a-4ec9-a1d0-c683677b9590" data-name="Objects" opacity=".3"><path d="M1922.58 637.28c0 35.75-39.24 64.72-87.65 64.72s-87.64-29-87.64-64.72-69.57-83.2-21.16-83.2 196.45 47.46 196.45 83.2z" opacity=".95" fill="url(#a020de10-eb2d-4e12-9c73-c5c9080b6717)"/><path d="M980.47 513.75c0 18.41 45.14 33.32 100.82 33.32S1218 482.6 1218 464.2s-81 16.23-136.71 16.23-100.82 14.92-100.82 33.32z" opacity=".87" fill="url(#87bc7153-a7fb-4e00-a9c7-4addf9b83cb4)"/><path d="M2764.67 515.78c0 47-134.23 64.12-159.78 64.12s67.28-17.09 67.28-64.12 20.71-85.15 46.25-85.15 46.25 38.12 46.25 85.15z" opacity=".88" fill="url(#89b27e7c-829d-480d-ac24-e932eae4b598)"/><g opacity=".94"><path d="M2360 307c-74.26 32.92-.54-200.72 24.33-141.12s18.65 90.7 59.49 116.67S2392 319 2360 307z" fill="url(#0f043080-0767-449c-a759-cc95cac30c7b)"/></g><path d="M1756.71 426.69c0 9.43 17.1 17.07 38.18 17.07s59.27-36.78 59.27-46.21-38.19 12.06-59.27 12.06-38.18 7.64-38.18 17.08z" opacity=".82" fill="url(#56c8435a-99ef-4af4-9337-c89da549f7a2)"/><path d="M2215.05 702.92c12.34-14.2 129-7.64 19.66-8.54s-84.23 49.27-119.56 77.4-51.09-49.26 69.52-27.57 18.04-27.1 30.38-41.29z" opacity=".91" fill="url(#8b15c30c-7145-449f-99cb-af4beed22ea8)"/><path d="M1491.41 629c0 34.36 12.66 62.22 28.28 62.22s70.7 28.7 70.7-5.66-55.08-118.77-70.7-118.77-28.28 27.81-28.28 62.21z" opacity=".91" fill="url(#3c3ec039-80ba-4866-ac50-01d8cb552de9)"/><path d="M1143.85 293.56c-29.16-18.18-59.5-22.18-67.76-8.92s-61.76 44.8-32.6 63 129.93 16.1 138.19 2.85-8.68-38.76-37.83-56.93z" opacity=".91" fill="url(#e731ec5e-7aee-46b6-8e77-cfdf1c1cb505)"/></g></g></g></svg>