<svg xmlns="http://www.w3.org/2000/svg" xmlns:xlink="http://www.w3.org/1999/xlink" viewBox="0 0 146.92 124.34"><defs><linearGradient id="7ebd72a7-3f28-43b2-a032-5b699b04e46a" x1="107.71" y1="87.73" x2="107.71" y2="59.95" gradientUnits="userSpaceOnUse"><stop offset="0" stop-color="#8f191c"/><stop offset="1" stop-color="#b82025"/></linearGradient><linearGradient id="fb75838d-4c2c-4efd-9936-8d45edea5cf5" x1="86.24" y1="70.32" x2="86.24" y2="68.79" xlink:href="#7ebd72a7-3f28-43b2-a032-5b699b04e46a"/><linearGradient id="9ff4ae2c-9493-497a-b77a-6f5ebf932638" x1="88.28" y1="70.32" x2="88.28" y2="68.79" xlink:href="#7ebd72a7-3f28-43b2-a032-5b699b04e46a"/><linearGradient id="e436ce8f-84e9-451f-af9b-425fc22c9e0e" x1="86.67" y1="69.4" x2="86.02" y2="70.8" xlink:href="#7ebd72a7-3f28-43b2-a032-5b699b04e46a"/><linearGradient id="737684a1-c5e6-4631-addf-2a4baa09152c" x1="88.51" y1="70.26" x2="87.87" y2="71.65" xlink:href="#7ebd72a7-3f28-43b2-a032-5b699b04e46a"/><linearGradient id="a9ff8599-a86a-4ea5-96ac-dbe59b318a10" x1="83.84" y1="73.68" x2="83.84" y2="72.19" xlink:href="#7ebd72a7-3f28-43b2-a032-5b699b04e46a"/><linearGradient id="32908716-6ced-42cc-aeb0-c4e23678be76" x1="86.05" y1="73.68" x2="86.05" y2="72.19" xlink:href="#7ebd72a7-3f28-43b2-a032-5b699b04e46a"/><linearGradient id="21c05b8a-04f7-44f5-9052-1235b8898c16" x1="82.77" y1="80.35" x2="82.77" y2="79.31" xlink:href="#7ebd72a7-3f28-43b2-a032-5b699b04e46a"/><linearGradient id="11e16ef5-09da-46b3-a86c-2b0e37795e8f" x1="84.75" y1="80.35" x2="84.75" y2="79.31" xlink:href="#7ebd72a7-3f28-43b2-a032-5b699b04e46a"/><linearGradient id="2680c20a-568c-4c6d-8e02-4874f14a6bcf" x1="86.92" y1="85.13" x2="86.92" y2="81.79" xlink:href="#7ebd72a7-3f28-43b2-a032-5b699b04e46a"/><linearGradient id="43da5a55-b622-4c95-a65d-03fa822e6179" x1="88.32" y1="85.13" x2="88.32" y2="81.79" xlink:href="#7ebd72a7-3f28-43b2-a032-5b699b04e46a"/><linearGradient id="5c906c16-2750-42b8-ae2c-93b39c8d7094" x1="86.2" y1="67.16" x2="86.2" y2="62.22" xlink:href="#7ebd72a7-3f28-43b2-a032-5b699b04e46a"/><linearGradient id="e40a1355-a58d-4e45-971e-89cddfbab7bc" x1="84.35" y1="76.87" x2="84.35" y2="74.16" xlink:href="#7ebd72a7-3f28-43b2-a032-5b699b04e46a"/><linearGradient id="07f1201a-1e3e-4168-b8d6-df276924e700" x1="79.42" y1="86.46" x2="79.42" y2="80.57" xlink:href="#7ebd72a7-3f28-43b2-a032-5b699b04e46a"/></defs><g id="16207489-2369-4eda-b79e-c4ee4c21b9aa" data-name="Layer 2"><g id="5bc99eb6-9657-4c98-98de-e196b634f6e9" data-name="naujienos"><path d="M21.18 110.86C-20.75 87.7 4.83 23.58 52.14 4.31s.5 31.92 28.59 37.33 90 25.3 56.47 54.89S63.1 134 21.18 110.86z" fill="#dee2e1" opacity=".3"/><g id="d941ac49-fcc8-40d2-8f51-9d19934b5ad3" data-name="Monkey smoking"><g id="9c5a72c4-344f-4ab0-836f-f34289f3d891" data-name="MONKEY"><path d="M39.45 40.57a25.76 25.76 0 0 1 5.89-4 5.83 5.83 0 0 1 8.28 3.22 18 18 0 0 1 .68 2.51c.28 1.07.35 3.36 1.44 3.57l4 .35c1.58.43.56 2.39.63 4.43l-.47.5c-1.31 4.25.18 9.38-4.3 8.8a67.47 67.47 0 0 1-9.8-1.85 10.8 10.8 0 0 1-7.47-7.1 12.18 12.18 0 0 1-.74-4.55c.05-2.09.34-4.45 1.86-5.88z" fill="#6a1b9a"/><path d="M38.52 83.69c-7.75-1.68-8.54-7.43-8-12.75s-.06-9.5-2.89-11.58a5.09 5.09 0 0 0-7.06 1.43c-1 1.59-1.07 4.12.76 5.15 1.6.91 3.75.36 4-1.45" fill="none" stroke="#6a1b9a" stroke-linecap="round" stroke-miterlimit="10" stroke-width="11.911"/><path d="M52.89 58.32l.53 16.83A10.52 10.52 0 0 1 41.61 86c-.25 0-.49-.11-.73-.1A10.46 10.46 0 0 1 33 71.35 70.1 70.1 0 0 1 42.79 55z" fill="#6a1b9a"/><path d="M55.59 60c-1.7-.31-3.27-.5-4.84-.81a6.15 6.15 0 0 1-4.83-4.18c-.94-3.22 1-6.41 3.65-6.49-2.94-1.52-3.34-6.52 1.9-8.33l2.42.29.41 1.79c.16 1.08 1.07 3.1 2.15 3.3l3.27.5a7.22 7.22 0 0 1 5.77 7.52c-.34 4.46-3.86 7.22-9.9 6.41z" fill="#f7cb4d"/><path d="M44 84.12c4.13 4.92 3.68 9.75.54 13.34l-7.33.23c6.07-6.09-.86-12.13-3.46-14.21z" fill="#6a1b9a"/><path d="M49 81.07c5.89 3.42 10 11.72 5.68 16l-7.33.23c6.09-6.14-1.65-11.19-4.24-13.3z" fill="#6a1b9a"/><path d="M47.42 45.38c-.06-1.93 1.08-4 4-5.07l2.42.29.42 1.79c-1.06-.69-5.46.78-6.84 2.99z" fill="#edb526"/><path d="M54 41.2l-16.34 3.88a7.21 7.21 0 0 1 1.79-4.51 25.76 25.76 0 0 1 5.89-4 5.83 5.83 0 0 1 8.28 3.22z" fill="#e62117"/><path d="M37 68.21l.52 16.47c.08 2.41-.89 5.93-3.58 4.57l-1.77 6.55c8.58 1.3 10.77-5.75 10.61-10.56l-.91-29A16.49 16.49 0 0 0 37 68.21z" fill="#8e24aa"/><path d="M43.88 47.41v.12c.94 3-1 6.17-3.65 6.38a28.75 28.75 0 0 1-4.45.14c-2.77-.15-4.91-3-4.53-6.24v-.12c.48-3.74 3.9-6.14 7-4.79a23.23 23.23 0 0 1 4.29 2.63 4.32 4.32 0 0 1 1.34 1.88z" fill="#f7cb4d"/><path d="M51.38 71.73c2.88 7.25 11 10 11 10l2.52-5.13c-11.64-6.38-12-16.47-12-16.47s-4.39 4.35-1.52 11.6z" fill="#6a1b9a"/><path d="M55 37.92a2.53 2.53 0 0 1 3.13-.1 1.43 1.43 0 0 1-.53 2.54l-8 1.94z" fill="#be2117"/><circle cx="61.44" cy="54.8" r="1.44" fill="#4a148c"/><circle cx="51.16" cy="45.74" r=".84" fill="#4a148c"/><circle cx="53.91" cy="45.17" r=".84" fill="#4a148c"/><path d="M33.76 89.25a3.63 3.63 0 0 1-1.59-1 1 1 0 0 0-1.78 1 .46.46 0 0 0 .14.36c-1.22-.45-1.89 1.14-.9 2.19-1.06.52-1.4 1.25-.52 2.43a8 8 0 0 0 3 1.46z" fill="#f7cb4d"/><path d="M56.69 95a3.88 3.88 0 0 1 4.39 1.79c.39.83-.3 1.81-1.5 1.85L49.12 99C48 99 47.4 98 48 97.23z" fill="#edb526"/><ellipse cx="42.98" cy="37.8" rx="1.08" ry=".84" transform="rotate(-21.2 42.562 37.59)" fill="#e62117"/><path d="M46 95.37a3.88 3.88 0 0 1 4.39 1.78c.39.83-.3 1.82-1.5 1.86l-10.46.33c-1.09 0-1.72-1-1.14-1.77z" fill="#f7cb4d"/><path d="M42.09 51.8a4.31 4.31 0 0 0-1.76-6.2 4.66 4.66 0 0 0-6.57 1.53" fill="#edb526"/><path d="M66.28 86.06l4-11.8a1.43 1.43 0 0 0-.9-1.78L68 71.93a1.32 1.32 0 0 0-1.78.77l-4.69 11.47a1.18 1.18 0 0 0 .65 1.54l2.56 1a1.19 1.19 0 0 0 1.54-.65z" fill="#e62117"/><path d="M74 69.81l.16 1.32 1.41-1.25a1 1 0 0 1 .83-.14l.49.22a.89.89 0 0 1 .47 1.04l-1.45 3.8a.76.76 0 0 1-1 .4l-.36-.11a.81.81 0 0 1-.5-.59l-.31-2-1.05.88a1.67 1.67 0 0 1-1.68.29L66.68 72a1.36 1.36 0 0 1-1-1.54l.2-1.45a13.37 13.37 0 0 0-3.14-.26.69.69 0 0 1-.4-1.31c.47-.25 1.07-.51 1.66-.77a5.6 5.6 0 0 1 4 0l5 1.89a1.41 1.41 0 0 1 1 1.25z" fill="#b0bec5"/><path d="M66.75 78.22l2.81 1.24.37.35a1.16 1.16 0 0 1-.9 1.83 1.19 1.19 0 0 1-.66 2.07c.63.82.53 1.55-.18 1.93a1.33 1.33 0 0 1-1 0l-3.17-1.22a1 1 0 0 1 .42-1.94 1.38 1.38 0 0 1 .89-2.32 1.25 1.25 0 0 1 1.42-1.94z" fill="#f7cb4d"/><ellipse cx="49.61" cy="76.01" rx="5.53" ry="3.85" transform="rotate(-85.11 49.611 76.009)" fill="#8e24aa"/></g><g id="161429df-ddc3-4b75-9c1a-903808ed5ffc" data-name="Pipe"><path id="0922ff59-02cb-4df4-96be-7350488d2384" data-name="pipe" d="M61.42 55c5.73-.27 5.51 4.46 9.5 4.53 3.41 0 2.65-4.57 2.65-4.57.06-.37-.74-.68-1.78-.71s-1.94.25-2 .62a11.57 11.57 0 0 0 0 2.31s-.06.33-.76 0-2.54-3-7.51-2.83zm11.76 0a1.06 1.06 0 0 1-.27.13 4.06 4.06 0 0 1-1.29.16 2.3 2.3 0 0 1-1.44-.36.63.63 0 0 1 .27-.13 3.75 3.75 0 0 1 1.28-.17 2.29 2.29 0 0 1 1.45.37z" fill="#9c3a13"/><path d="M71 48.64c-.22.42-.44.84-.68 1.25a3.47 3.47 0 0 0-.5 1.29 5 5 0 0 0 .65 2.69 4.49 4.49 0 0 1-.82-2.71 3.6 3.6 0 0 1 .57-1.33c.27-.41.54-.83.78-1.19z" fill="#805959"/><path d="M72 48.83c-.23.46-.48.92-.74 1.36s-.61.9-.52 1.38a14.46 14.46 0 0 0 .51 1.43c.19.48.36 1 .51 1.47-.22-.47-.42-1-.61-1.43a11.15 11.15 0 0 1-.55-1.47c-.06-.6.36-1 .6-1.45s.54-.87.8-1.29z" fill="#805959"/><path d="M73.62 49.13a6 6 0 0 1-.89 1.33 3.92 3.92 0 0 0-.73 1.36 2 2 0 0 0 .18 1.49 12.61 12.61 0 0 1 .72 1.42c-.24-.48-.57-.89-.82-1.37a2 2 0 0 1-.24-1.59c.31-1.08 1.24-1.77 1.78-2.64z" fill="#805959"/><path d="M85 85.71a12.07 12.07 0 0 0 3.27-2.36" fill="none"/></g></g><path d="M127.79 78.39a58.23 58.23 0 0 0-4.91-16.58c-1-2.11-2.43-2.92-5.27-2.62-5.55.53-23.22 5.7-27 8a8 8 0 0 0-2.22 1.92c-.13.17 2 1.47 2 1.47a6.68 6.68 0 0 0-1 1c-.11.32-1.74-.65-1.76-.29a4.52 4.52 0 0 0 0 1 58.68 58.68 0 0 0 1.37 6.8c.21.6.41 1.19.58 1.76.26.87.51 1.74.77 2.61a55.9 55.9 0 0 0 2.16 5.35 4.84 4.84 0 0 0 5.74 2.74q3.33-.73 6.63-1.56h.12L118.26 86c2-.69 4.06-1.41 6.07-2.18a4.88 4.88 0 0 0 3.46-5.43zM96 89.56a1 1 0 0 1-.93-1.5l1.25-2.5.68 2.72a1 1 0 0 1-1 1.28zm13.22-19.36c.19-1 .44-2.09 1.45-2.33a1.88 1.88 0 1 1 .66 3.69c-2.04 2.14-2.53.97-2.11-1.36zm-9 2.73c0-1.09.32-2.18 1.4-2.47a1.9 1.9 0 0 1 2.38 1.36 1.79 1.79 0 0 1 .07.51 2 2 0 0 1-1.39 1.9c-1.33 1.56-2.45.9-2.46-1.3zM105 84.64a1.48 1.48 0 0 1-2.17-.89 1.15 1.15 0 0 1 .58-1.32l12.41-6.57c.32.58.53 1 .82 1.5-3.92 2.03-7.75 4.98-11.64 7.28z" fill="url(#7ebd72a7-3f28-43b2-a032-5b699b04e46a)"/><path d="M86 68.86a1.77 1.77 0 0 0 .8.5.17.17 0 0 1 .12.22.17.17 0 0 1-.2.12 2.12 2.12 0 0 1-1.09-.45.26.26 0 0 1 0-.38.27.27 0 0 1 .38 0z" fill="url(#fb75838d-4c2c-4efd-9936-8d45edea5cf5)"/><path d="M87.84 69.62a2.76 2.76 0 0 1 1 .44 2.61 2.61 0 0 0-1-.26.09.09 0 0 1-.08-.1.08.08 0 0 1 .1-.08z" fill="url(#9ff4ae2c-9493-497a-b77a-6f5ebf932638)"/><path d="M85.67 70.13a2.17 2.17 0 0 1 1.19.05.17.17 0 0 1 .12.22.19.19 0 0 1-.19.13 1.62 1.62 0 0 0-.94.11.28.28 0 0 1-.36-.13.27.27 0 0 1 .13-.36z" fill="url(#e436ce8f-84e9-451f-af9b-425fc22c9e0e)"/><path d="M87.87 70.54a2.77 2.77 0 0 0 1 .19 3 3 0 0 1-1.08 0 .08.08 0 0 1-.07-.1.09.09 0 0 1 .1-.08z" fill="url(#737684a1-c5e6-4631-addf-2a4baa09152c)"/><path d="M83.33 72.46c.34.12.67.24 1 .34" fill="none" stroke-linecap="round" stroke-linejoin="round" stroke-width=".536" stroke="url(#a9ff8599-a86a-4ea5-96ac-dbe59b318a10)"/><path d="M85.53 73.15c.35.1.7.18 1 .26" fill="none" stroke-linecap="round" stroke-linejoin="round" stroke-width=".536" stroke="url(#32908716-6ced-42cc-aeb0-c4e23678be76)"/><path d="M82.24 80.09c.35 0 .71-.06 1.07-.11" fill="none" stroke-linecap="round" stroke-linejoin="round" stroke-width=".536" stroke="url(#21c05b8a-04f7-44f5-9052-1235b8898c16)"/><path d="M84.23 79.83c.35-.07.7-.16 1-.26" fill="none" stroke-linecap="round" stroke-linejoin="round" stroke-width=".536" stroke="url(#11e16ef5-09da-46b3-a86c-2b0e37795e8f)"/><path d="M86.61 82.06l.63.87" fill="none" stroke-linecap="round" stroke-linejoin="round" stroke-width=".536" stroke="url(#2680c20a-568c-4c6d-8e02-4874f14a6bcf)"/><path d="M88 84l.63.87" fill="none" stroke-linecap="round" stroke-linejoin="round" stroke-width=".536" stroke="url(#43da5a55-b622-4c95-a65d-03fa822e6179)"/><path d="M88.73 62.51c1.7.91-1.33 4-2.67 4.51s-3.45-.28-2.75-1.7 1.51-.78 2.48-1.5 1.21-2.23 2.94-1.31z" fill="url(#5c906c16-2750-42b8-ae2c-93b39c8d7094)"/><path d="M86.62 76.26c.09 2-3.57-1.51-2.42-1s-.88 1.78-1.58.91-.86-2.14.35-2 3.56.13 3.65 2.09z" fill="url(#e40a1355-a58d-4e45-971e-89cddfbab7bc)"/><path d="M86.62 76.26c.09 2-3.57-1.51-2.42-1s-.88 1.78-1.58.91-.86-2.14.35-2 3.56.13 3.65 2.09z" fill="url(#e40a1355-a58d-4e45-971e-89cddfbab7bc)"/><path d="M79.42 83.46c-.09-.9 1.78-1.88 1.4-2.46s-1.43-.57-2.33 0-.44 1.59-.3 2.56-1.77.75-1.77 1.36c0 .83 1.34 1.5 3 1.5s3-.67 3-1.5-2.91-.56-3-1.46z" fill="url(#07f1201a-1e3e-4168-b8d6-df276924e700)"/></g></g></svg>