<svg xmlns="http://www.w3.org/2000/svg" xmlns:xlink="http://www.w3.org/1999/xlink" viewBox="0 0 221.61 197.02"><defs><clipPath id="c2298b44-cff2-4594-957c-38a78f9ea74f"><circle cx="122.13" cy="80.23" r="37.49" fill="none"/></clipPath><linearGradient id="4bd1d5c9-cae1-42e5-8437-c120848375cc" x1="124.57" y1="59.91" x2="125.49" y2="141.16" gradientTransform="rotate(11.74 135.984 91.243)" gradientUnits="userSpaceOnUse"><stop offset="0" stop-color="#3fa9f5"/><stop offset=".09" stop-color="#47aaf2" stop-opacity=".96"/><stop offset=".24" stop-color="#5eabeb" stop-opacity=".84"/><stop offset=".45" stop-color="#83aee0" stop-opacity=".65"/><stop offset=".69" stop-color="#b6b2d0" stop-opacity=".38"/><stop offset=".96" stop-color="#f6b6bc" stop-opacity=".05"/><stop offset="1" stop-color="#ffb7b9" stop-opacity="0"/></linearGradient><linearGradient id="323588d6-7a79-4dfd-8441-afb991a83af9" x1="96.6" y1="89.67" x2="140.59" y2="42.35" gradientUnits="userSpaceOnUse"><stop offset="0" stop-color="#cce0f4"/><stop offset=".06" stop-color="#c3dcf2"/><stop offset=".17" stop-color="#a9d2ee"/><stop offset=".31" stop-color="#80c2e7"/><stop offset=".46" stop-color="#47acde"/><stop offset=".57" stop-color="#1e9cd7"/><stop offset=".87" stop-color="#0075be"/><stop offset=".99" stop-color="#005b97"/></linearGradient><linearGradient id="d223124b-8f53-4fec-867d-a1c4ad3c14bc" x1="103.91" y1="96.46" x2="147.9" y2="49.14" xlink:href="#323588d6-7a79-4dfd-8441-afb991a83af9"/></defs><g id="b54e5c11-584e-4860-8c6e-739fee6546b6" data-name="Layer 2"><g id="8d162a58-0bfa-4d86-9436-197a126387bf" data-name="SEO"><path d="M157.23 190.36c66.82 40.87 38.45-118.74 13-144.34S46.49-26.81 59.87 19.61s-98.65 125.73-45.44 143.72 75.98-13.84 142.8 27.03z" fill="#dee2e1" opacity=".3"/><g id="88e3077e-d85f-463e-994c-ce860fae6ff1" data-name="Lines" fill="none" stroke="#7070ff" stroke-linecap="round" stroke-linejoin="round" stroke-width="4.591"><path d="M6.89 105.41h75.75m-75.75 8.5h56.24M6.89 122.4h47.06m-47.06 8.49h80.34m-80.34 8.5l57.39.46m-57.39 8.03h18.36m-18.36 8.03h35.58"/></g><g id="ca1ae552-16fc-4c3e-8c1b-45f14cab6ee3" data-name="stats"><g id="deb6eb4a-41ab-4bfb-b420-d4a8a228da15" data-name="glass" fill="none" stroke="#c6beb3" stroke-width="7.142"><circle cx="122.13" cy="80.23" r="44.29" stroke-miterlimit="10"/><path stroke-linecap="round" stroke-linejoin="round" d="M154.07 111.71l63.97 55.7"/></g><g id="5fd8dd73-8469-4f47-9e1f-ea124fe7b759" data-name="inside"><g clip-path="url(#c2298b44-cff2-4594-957c-38a78f9ea74f)"><path id="71b26aa0-8dee-4a22-9a08-02938f9426dc" data-name="graph" fill="url(#4bd1d5c9-cae1-42e5-8437-c120848375cc)" d="M82.14 92.53l9.26-7.35-.25 6.86 3.68-.43 2.13 4 8.39-10.63 1.73 6.55 4.31-5.13 3.69 8.39 5.69-16.64 5.08 4.91 5.16-5.59 2.12 5.48 4.69-12.86 2.61 9.92 6.04-7.66 3.38 5.16 4.74-12.38 1.67 13.71 5.24-14.5 3.38 5.16 2.5 9.42-.04 12.76-10.69 49.61-81.14-16.86 6.63-31.9z"/><g id="902fb1f7-6ba1-4276-a999-1ec4ba95684a" data-name="arrow"><path fill="none" stroke-linecap="round" stroke-linejoin="round" stroke-width="2.381" stroke="url(#323588d6-7a79-4dfd-8441-afb991a83af9)" d="M89.72 81.66l32.94-21.77-6.93 16.36 26.66-20.43"/><path fill="url(#d223124b-8f53-4fec-867d-a1c4ad3c14bc)" d="M148.39 51.22l-5.81 9.94-.64-4.99-4.66-1.92 11.11-3.03z"/></g></g></g></g></g></g></svg>