<svg xmlns="http://www.w3.org/2000/svg" viewBox="0 0 145.88 124.62"><g id="a817a3ce-8b5c-4c76-b39d-f5a0a92c9030" data-name="Layer 2"><g id="0a0149dd-b984-4ab0-964d-05ee19080421" data-name="verslas"><path d="M13.52 30.31c14.94-39.09 88.6-40.79 122.93-2.67s-36 10.5-37.47 32.51-13.42 79.24-49.44 60.91-50.95-51.67-36.02-90.75z" fill="#dee2e1" opacity=".3"/><path fill="none" stroke="#ccc" stroke-linecap="round" stroke-linejoin="round" stroke-width="4" d="M2 79.61h135"/><path d="M36 57.19a9 9 0 1 1-9 9 9 9 0 0 1 9-9zm-.28 11.54v1.68c0 .09 0 .1-.1.08h-.16a1.42 1.42 0 0 1-1.18-1 5.11 5.11 0 0 1-.2-1c0-.06 0-.09-.1-.09H32c-.07 0-.09 0-.09.09a7.07 7.07 0 0 0 .09 1.26A2.87 2.87 0 0 0 34 72a7.14 7.14 0 0 0 1.7.35c.07 0 .09 0 .09.08v.58c0 .19 0 .07.07.07h.62c.06 0 .07 0 .07-.07v-.57c0-.07 0-.09.09-.09A4.55 4.55 0 0 0 38.2 72a3.33 3.33 0 0 0 2-2.54 4.91 4.91 0 0 0 0-1.53 2.39 2.39 0 0 0-.92-1.65 6.17 6.17 0 0 0-.88-.55 13.29 13.29 0 0 0-1.83-.73c-.07 0-.08-.06-.08-.12V62c0-.2 0-.21.2-.17a1.17 1.17 0 0 1 1 .82 3.63 3.63 0 0 1 .16.81c0 .07 0 .09.1.09h2c.07 0 .09 0 .08-.09a5.47 5.47 0 0 0-.2-1.2 2.92 2.92 0 0 0-1.69-1.95 4.44 4.44 0 0 0-1.55-.31c-.09 0-.11 0-.1-.12v-.61c0-.06 0-.09-.08-.09h-.6c-.06 0-.08 0-.08.08v.66c0 .05 0 .07-.07.07h-.24a3.63 3.63 0 0 0-1.9.69 3.42 3.42 0 0 0-1.43 3.08 2.76 2.76 0 0 0 .84 1.91 3.78 3.78 0 0 0 .9.64 9.81 9.81 0 0 0 1.81.66c.07 0 .09 0 .09.11v1.65z" fill="#009e55"/><path d="M35.73 68.73v-1.68c0-.07 0-.09-.09-.11a9.81 9.81 0 0 1-1.81-.66 3.78 3.78 0 0 1-.9-.64 2.76 2.76 0 0 1-.84-1.91 3.42 3.42 0 0 1 1.43-3.08 3.63 3.63 0 0 1 1.9-.69h.24s.07 0 .07-.07v-.66c0-.06 0-.08.08-.08h.6c.07 0 .08 0 .08.09v.61c0 .08 0 .11.1.12a4.44 4.44 0 0 1 1.57.32 2.92 2.92 0 0 1 1.69 1.95 5.47 5.47 0 0 1 .2 1.2c0 .07 0 .09-.08.09H38c-.07 0-.09 0-.1-.09a3.63 3.63 0 0 0-.16-.81 1.17 1.17 0 0 0-1-.82c-.2 0-.2 0-.2.17v2.87c0 .06 0 .1.08.12a13.29 13.29 0 0 1 1.84.73 6.17 6.17 0 0 1 .88.55 2.39 2.39 0 0 1 .92 1.65 4.91 4.91 0 0 1 0 1.53 3.33 3.33 0 0 1-2 2.54 4.55 4.55 0 0 1-1.62.37c-.07 0-.09 0-.09.09V73s0 .07-.07.07h-.68c-.06 0-.07 0-.07-.07v-.58c0-.19 0-.08-.09-.08A7.14 7.14 0 0 1 34 72a2.87 2.87 0 0 1-2-2.25 7.07 7.07 0 0 1-.14-1.29c0-.07 0-.09.09-.09h2c.07 0 .09 0 .1.09a5.11 5.11 0 0 0 .2 1 1.42 1.42 0 0 0 1.18 1h.16c.07 0 .1 0 .1-.08v-.8zm.76.14v1.44c0 .2 0 .2.21.17a1.56 1.56 0 0 0 1-2.49 2.09 2.09 0 0 0-1.12-.71c-.07 0-.08 0-.08.07zm-.76-5.65v-1.37c0-.07 0-.09-.09-.08h-.23a1.37 1.37 0 0 0-1.09 1.72 1.55 1.55 0 0 0 1.34 1.15c.08 0 .06 0 .06-.07z" fill="#fefefe"/><path d="M36.49 68.87v-1.52c0-.08 0-.09.08-.07a2.09 2.09 0 0 1 1.12.71 1.56 1.56 0 0 1-1 2.49c-.21 0-.21 0-.21-.17zm-.76-5.65v1.38s0 .08-.06.07a1.55 1.55 0 0 1-1.34-1.15 1.37 1.37 0 0 1 1.09-1.72h.23c.06 0 .09 0 .09.08-.01.42-.01.88-.01 1.34z" fill="#009e55"/><path d="M13.29 57.19a9 9 0 1 1-9 9 9 9 0 0 1 9-9zM13 68.73v1.68c0 .09 0 .1-.1.08h-.16a1.42 1.42 0 0 1-1.18-1 5.11 5.11 0 0 1-.2-1c0-.06 0-.09-.1-.09h-2c-.07 0-.09 0-.09.09a7.07 7.07 0 0 0 .14 1.29 2.87 2.87 0 0 0 2 2.22 7.06 7.06 0 0 0 1.69.35c.07 0 .09 0 .09.08v.58c0 .19 0 .07.07.07h.62c.06 0 .07 0 .07-.07v-.57c0-.07 0-.09.09-.09a4.55 4.55 0 0 0 1.54-.35 3.33 3.33 0 0 0 2-2.54 4.91 4.91 0 0 0 0-1.53 2.39 2.39 0 0 0-.92-1.65 6.17 6.17 0 0 0-.88-.55 13.29 13.29 0 0 0-1.83-.73c-.07 0-.08-.06-.08-.12V62c0-.2 0-.21.2-.17a1.17 1.17 0 0 1 1 .82 3.63 3.63 0 0 1 .16.81c0 .07 0 .09.1.09h2c.07 0 .09 0 .08-.09a5.47 5.47 0 0 0-.2-1.2 2.92 2.92 0 0 0-1.69-1.95 4.44 4.44 0 0 0-1.55-.31c-.09 0-.1 0-.1-.12v-.61c0-.06 0-.09-.08-.09h-.6c-.06 0-.08 0-.08.08v.66c0 .05 0 .07-.07.07h-.24a3.63 3.63 0 0 0-1.9.69 3.42 3.42 0 0 0-1.43 3.08 2.76 2.76 0 0 0 .84 1.91 3.78 3.78 0 0 0 .9.64 9.81 9.81 0 0 0 1.81.66c.07 0 .09 0 .09.11-.01.53-.01 1.09-.01 1.65z" fill="#daab2b"/><path d="M13 68.73v-1.68c0-.07 0-.09-.09-.11a9.81 9.81 0 0 1-1.81-.66 3.78 3.78 0 0 1-.9-.64 2.76 2.76 0 0 1-.84-1.91 3.42 3.42 0 0 1 1.43-3.08 3.63 3.63 0 0 1 1.9-.69h.24c.05 0 .07 0 .07-.07v-.66c0-.06 0-.08.08-.08h.6c.07 0 .08 0 .08.09v.61c0 .08 0 .11.1.12a4.44 4.44 0 0 1 1.57.32 2.92 2.92 0 0 1 1.69 1.95 5.47 5.47 0 0 1 .2 1.2c0 .07 0 .09-.08.09h-2c-.07 0-.09 0-.1-.09a3.63 3.63 0 0 0-.16-.81 1.17 1.17 0 0 0-1-.82c-.2 0-.2 0-.2.17v2.87c0 .06 0 .1.08.12a13.29 13.29 0 0 1 1.84.73 6.17 6.17 0 0 1 .88.55 2.39 2.39 0 0 1 .92 1.65 4.91 4.91 0 0 1 0 1.53 3.33 3.33 0 0 1-2 2.54 4.55 4.55 0 0 1-1.62.37c-.07 0-.09 0-.09.09V73s0 .07-.07.07h-.62C13 73.05 13 73 13 73v-.58c0-.19 0-.08-.09-.08a7.06 7.06 0 0 1-1.67-.34 2.87 2.87 0 0 1-2-2.22 7.07 7.07 0 0 1-.14-1.29c0-.07 0-.09.09-.09h2c.07 0 .09 0 .1.09a5.11 5.11 0 0 0 .2 1 1.42 1.42 0 0 0 1.18 1h.16c.07 0 .1 0 .1-.08v-.8zm.76.14v1.44c0 .2 0 .2.21.17A1.56 1.56 0 0 0 15 68a2.09 2.09 0 0 0-1.12-.71c-.07 0-.08 0-.08.07zM13 63.22v-1.37c0-.07 0-.09-.09-.08h-.23a1.37 1.37 0 0 0-1.09 1.72A1.56 1.56 0 0 0 13 64.67c.08 0 .06 0 .06-.07z" fill="#fefefe"/><path d="M13.77 68.87v-1.52c0-.08 0-.09.08-.07A2.09 2.09 0 0 1 15 68a1.56 1.56 0 0 1-1 2.49c-.21 0-.21 0-.21-.17zM13 63.22v1.38s0 .08-.06.07a1.56 1.56 0 0 1-1.34-1.15 1.37 1.37 0 0 1 1.1-1.72h.23c.06 0 .09 0 .09.08-.02.42-.02.88-.02 1.34z" fill="#daab2b"/><path d="M81.45 57.19a9 9 0 1 1-9 9 9 9 0 0 1 9-9zm-.28 11.54v1.68c0 .09 0 .1-.1.08h-.16a1.41 1.41 0 0 1-1.18-1 5.11 5.11 0 0 1-.2-1c0-.06 0-.09-.1-.09h-2c-.07 0-.09 0-.09.09a7.07 7.07 0 0 0 .14 1.29A2.87 2.87 0 0 0 79.39 72a7.14 7.14 0 0 0 1.7.35c.07 0 .09 0 .09.08v.58c0 .19 0 .07.07.07h.62s.07 0 .07-.07v-.57c0-.07 0-.09.09-.09a4.55 4.55 0 0 0 1.61-.35 3.33 3.33 0 0 0 2-2.54 4.91 4.91 0 0 0 0-1.53 2.39 2.39 0 0 0-.92-1.65 6.17 6.17 0 0 0-.88-.55A13.29 13.29 0 0 0 82 65c-.07 0-.08-.06-.08-.12V62c0-.2 0-.21.2-.17a1.17 1.17 0 0 1 1 .82 3.63 3.63 0 0 1 .16.81c0 .07 0 .09.1.09h2c.07 0 .09 0 .08-.09a5.47 5.47 0 0 0-.2-1.2 2.92 2.92 0 0 0-1.69-1.95A4.44 4.44 0 0 0 82 60c-.09 0-.11 0-.1-.12v-.61c0-.06 0-.09-.08-.09h-.6c-.06 0-.08 0-.08.08v.66c0 .05 0 .07-.06.07h-.24a3.6 3.6 0 0 0-1.9.69 3.42 3.42 0 0 0-1.43 3.08 2.76 2.76 0 0 0 .84 1.91 3.78 3.78 0 0 0 .9.64 9.81 9.81 0 0 0 1.81.66c.07 0 .09 0 .09.11.02.53.02 1.09.02 1.65z" fill="#009e55"/><path d="M81.17 68.73v-1.68c0-.07 0-.09-.09-.11a9.81 9.81 0 0 1-1.81-.66 3.78 3.78 0 0 1-.9-.64 2.76 2.76 0 0 1-.84-1.91A3.42 3.42 0 0 1 79 60.65a3.6 3.6 0 0 1 1.9-.69h.24s.07 0 .06-.07v-.66c0-.06 0-.08.08-.08h.6c.07 0 .08 0 .08.09v.61c0 .08 0 .11.1.12a4.44 4.44 0 0 1 1.57.32 2.92 2.92 0 0 1 1.69 1.95 5.47 5.47 0 0 1 .2 1.2c0 .07 0 .09-.08.09h-2c-.07 0-.09 0-.1-.09a3.63 3.63 0 0 0-.16-.81 1.17 1.17 0 0 0-1-.82c-.2 0-.2 0-.2.17v2.87c0 .06 0 .1.08.12a13.29 13.29 0 0 1 1.84.73 6.17 6.17 0 0 1 .88.55 2.39 2.39 0 0 1 .92 1.65 4.91 4.91 0 0 1 0 1.53 3.33 3.33 0 0 1-2 2.54 4.55 4.55 0 0 1-1.62.37c-.07 0-.1 0-.09.09V73s0 .07-.07.07h-.62c-.06 0-.07 0-.07-.07v-.58c0-.19 0-.08-.09-.08a7.14 7.14 0 0 1-1.7-.35 2.87 2.87 0 0 1-1.94-2.22 7.07 7.07 0 0 1-.14-1.29c0-.07 0-.09.09-.09h2c.07 0 .09 0 .1.09a5.11 5.11 0 0 0 .2 1 1.41 1.41 0 0 0 1.18 1h.16c.07 0 .1 0 .1-.08v-.8zm.76.14v1.44c0 .2 0 .2.21.17a1.56 1.56 0 0 0 1-2.49 2.09 2.09 0 0 0-1.14-.71c-.07 0-.08 0-.08.07zm-.76-5.65v-1.37c0-.07 0-.09-.09-.08h-.23a1.37 1.37 0 0 0-1.09 1.72 1.55 1.55 0 0 0 1.34 1.15c.08 0 .06 0 .06-.07z" fill="#fefefe"/><path d="M81.93 68.87v-1.52c0-.08 0-.09.08-.07a2.09 2.09 0 0 1 1.12.71 1.56 1.56 0 0 1-1 2.49c-.21 0-.21 0-.21-.17zm-.76-5.65v1.38s0 .08-.06.07a1.55 1.55 0 0 1-1.34-1.15 1.37 1.37 0 0 1 1.09-1.72h.23c.06 0 .09 0 .09.08-.01.42-.01.88-.01 1.34z" fill="#009e55"/><path d="M58.73 57.19a9 9 0 1 1-9 9 9 9 0 0 1 9-9zm-.28 11.54v1.68c0 .09 0 .1-.1.08h-.16a1.41 1.41 0 0 1-1.18-1 5.11 5.11 0 0 1-.2-1c0-.06 0-.09-.1-.09h-2c-.07 0-.09 0-.09.09a7.07 7.07 0 0 0 .14 1.29A2.87 2.87 0 0 0 56.67 72a7.14 7.14 0 0 0 1.7.35c.07 0 .09 0 .09.08v.58c0 .19 0 .07.07.07h.62s.07 0 .07-.07v-.57c0-.07 0-.09.09-.09a4.55 4.55 0 0 0 1.61-.35 3.33 3.33 0 0 0 2-2.54 4.91 4.91 0 0 0 0-1.53 2.39 2.39 0 0 0-.92-1.7 6.17 6.17 0 0 0-.88-.55 13.29 13.29 0 0 0-1.83-.68c-.07 0-.08-.06-.08-.12V62c0-.2 0-.21.2-.17a1.17 1.17 0 0 1 1 .82 3.63 3.63 0 0 1 .16.81c0 .07 0 .09.1.09h2c.07 0 .09 0 .08-.09a5.47 5.47 0 0 0-.2-1.2 2.92 2.92 0 0 0-1.69-1.95 4.44 4.44 0 0 0-1.55-.31c-.09 0-.11 0-.1-.12v-.61c0-.06 0-.09-.08-.09h-.6c-.06 0-.08 0-.08.08v.66c0 .05 0 .07-.06.07h-.24a3.63 3.63 0 0 0-1.9.69 3.42 3.42 0 0 0-1.43 3.08 2.76 2.76 0 0 0 .84 1.91 3.78 3.78 0 0 0 .9.64 9.81 9.81 0 0 0 1.81.66c.07 0 .09 0 .09.11-.01.53-.01 1.09-.01 1.65z" fill="#daab2b"/><path d="M58.45 68.73v-1.68c0-.07 0-.09-.09-.11a9.81 9.81 0 0 1-1.81-.66 3.78 3.78 0 0 1-.9-.64 2.76 2.76 0 0 1-.84-1.91 3.42 3.42 0 0 1 1.43-3.08 3.63 3.63 0 0 1 1.9-.69h.24s.07 0 .06-.07v-.66c0-.06 0-.08.08-.08h.6c.07 0 .08 0 .08.09v.61c0 .08 0 .11.1.12a4.44 4.44 0 0 1 1.57.32 2.92 2.92 0 0 1 1.69 1.95 5.47 5.47 0 0 1 .2 1.2c0 .07 0 .09-.08.09h-2c-.07 0-.09 0-.1-.09a3.63 3.63 0 0 0-.16-.81 1.17 1.17 0 0 0-1-.82c-.2 0-.2 0-.2.17v2.87c0 .06 0 .1.08.12a13.29 13.29 0 0 1 1.84.73 6.17 6.17 0 0 1 .88.55 2.39 2.39 0 0 1 .92 1.65 4.91 4.91 0 0 1 0 1.53 3.33 3.33 0 0 1-2 2.54 4.55 4.55 0 0 1-1.62.37c-.07 0-.1 0-.09.09V73s0 .07-.07.07h-.62c-.06 0-.07 0-.07-.07v-.58c0-.19 0-.08-.09-.08a7.14 7.14 0 0 1-1.7-.35 2.87 2.87 0 0 1-1.94-2.22 7.07 7.07 0 0 1-.14-1.29c0-.07 0-.09.09-.09h2c.07 0 .09 0 .1.09a5.11 5.11 0 0 0 .2 1 1.41 1.41 0 0 0 1.18 1h.16c.07 0 .1 0 .1-.08v-.8zm.76.14v1.44c0 .2 0 .2.21.17a1.56 1.56 0 0 0 1-2.49 2.09 2.09 0 0 0-1.12-.71c-.07 0-.08 0-.08.07zm-.76-5.65v-1.37c0-.07 0-.09-.09-.08h-.23a1.37 1.37 0 0 0-1.09 1.72 1.55 1.55 0 0 0 1.34 1.15c.08 0 .06 0 .06-.07z" fill="#fefefe"/><path d="M59.21 68.87v-1.52c0-.08 0-.09.08-.07a2.09 2.09 0 0 1 1.12.71 1.56 1.56 0 0 1-1 2.49c-.21 0-.21 0-.21-.17zm-.76-5.65v1.38s0 .08-.06.07a1.55 1.55 0 0 1-1.34-1.15 1.37 1.37 0 0 1 1.09-1.72h.23c.06 0 .09 0 .09.08-.01.42-.01.88-.01 1.34z" fill="#daab2b"/><path d="M126.89 57.19a9 9 0 1 1-9 9 9 9 0 0 1 9-9zm-.28 11.54v1.68c0 .09 0 .1-.1.08h-.16a1.4 1.4 0 0 1-1.18-1 5.11 5.11 0 0 1-.2-1c0-.06 0-.09-.1-.09h-2c-.07 0-.09 0-.09.09a7.07 7.07 0 0 0 .14 1.29 2.87 2.87 0 0 0 1.91 2.22 7 7 0 0 0 1.7.35c.06 0 .09 0 .08.08V73s0 .07.07.07h.62s.07 0 .07-.07v-.57c0-.07 0-.09.09-.09a4.55 4.55 0 0 0 1.62-.37 3.33 3.33 0 0 0 2-2.54 4.91 4.91 0 0 0 0-1.53 2.39 2.39 0 0 0-.92-1.65 6.17 6.17 0 0 0-.88-.55 13.29 13.29 0 0 0-1.84-.73c-.07 0-.08-.06-.08-.12V62c0-.2 0-.21.2-.17a1.17 1.17 0 0 1 1 .82 3.63 3.63 0 0 1 .16.81c0 .07 0 .09.1.09h2c.07 0 .09 0 .08-.09a5.47 5.47 0 0 0-.2-1.2 2.92 2.92 0 0 0-1.7-1.99 4.44 4.44 0 0 0-1.57-.32c-.09 0-.11 0-.1-.12v-.61c0-.06 0-.09-.08-.09h-.6c-.06 0-.08 0-.08.08v.66c0 .05 0 .07-.06.07h-.24a3.6 3.6 0 0 0-1.9.69 3.42 3.42 0 0 0-1.37 3.1 2.76 2.76 0 0 0 .84 1.91 3.78 3.78 0 0 0 .9.64 9.55 9.55 0 0 0 1.81.66c.07 0 .08 0 .08.11z" fill="#009e55"/><path d="M126.61 68.73v-1.68c0-.07 0-.09-.08-.11a9.55 9.55 0 0 1-1.81-.66 3.78 3.78 0 0 1-.9-.64 2.76 2.76 0 0 1-.84-1.91 3.42 3.42 0 0 1 1.43-3.08 3.6 3.6 0 0 1 1.9-.69h.24s.06 0 .06-.07v-.66c0-.06 0-.08.08-.08h.6c.07 0 .08 0 .08.09v.61c0 .08 0 .11.1.12a4.44 4.44 0 0 1 1.57.32 2.92 2.92 0 0 1 1.69 1.95 5.47 5.47 0 0 1 .2 1.2c0 .07 0 .09-.08.09h-2c-.07 0-.09 0-.1-.09a3.63 3.63 0 0 0-.16-.81 1.17 1.17 0 0 0-1-.82c-.2 0-.2 0-.2.17v2.87c0 .06 0 .1.08.12a13.29 13.29 0 0 1 1.84.73 6.17 6.17 0 0 1 .88.55 2.39 2.39 0 0 1 .92 1.65 4.91 4.91 0 0 1 0 1.53 3.33 3.33 0 0 1-2 2.54 4.55 4.55 0 0 1-1.62.37c-.07 0-.1 0-.09.09V73s0 .07-.07.07h-.62c-.06 0-.07 0-.07-.07v-.6c0-.06 0-.08-.08-.08a7 7 0 0 1-1.7-.35 2.87 2.87 0 0 1-1.94-2.22 7.07 7.07 0 0 1-.14-1.29c0-.07 0-.09.09-.09h2c.07 0 .09 0 .1.09a5.11 5.11 0 0 0 .2 1 1.4 1.4 0 0 0 1.18 1h.16c.07 0 .1 0 .1-.08v-.8zm.76.14v1.44c0 .2 0 .2.21.17a1.56 1.56 0 0 0 1-2.49 2.09 2.09 0 0 0-1.12-.71c-.07 0-.08 0-.08.07zm-.76-5.65v-1.37c0-.07 0-.09-.08-.08h-.23a1.37 1.37 0 0 0-1.09 1.72 1.55 1.55 0 0 0 1.34 1.15c.08 0 .06 0 .06-.07z" fill="#fefefe"/><path d="M127.37 68.87v-1.52c0-.08 0-.09.08-.07a2.09 2.09 0 0 1 1.12.71 1.56 1.56 0 0 1-1 2.49c-.21 0-.21 0-.21-.17zm-.76-5.65v1.38s0 .08-.06.07a1.55 1.55 0 0 1-1.34-1.15 1.37 1.37 0 0 1 1.09-1.72h.23c.06 0 .09 0 .08.08z" fill="#009e55"/><path d="M104.17 57.19a9 9 0 1 1-9 9 9 9 0 0 1 9-9zm-.28 11.54v1.68c0 .09 0 .1-.1.08h-.16a1.4 1.4 0 0 1-1.18-1 5.11 5.11 0 0 1-.2-1c0-.06 0-.09-.1-.09h-2c-.07 0-.09 0-.09.09a7.07 7.07 0 0 0 .14 1.29 2.87 2.87 0 0 0 1.91 2.22 7 7 0 0 0 1.7.35c.06 0 .09 0 .08.08V73s0 .07.07.07h.62s.07 0 .07-.07v-.57c0-.07 0-.09.09-.09a4.55 4.55 0 0 0 1.62-.37 3.33 3.33 0 0 0 2-2.54 4.91 4.91 0 0 0 0-1.53 2.39 2.39 0 0 0-.92-1.65 6.17 6.17 0 0 0-.88-.55 13.29 13.29 0 0 0-1.84-.73c-.07 0-.08-.06-.08-.12V62c0-.2 0-.21.2-.17a1.17 1.17 0 0 1 1 .82 3.63 3.63 0 0 1 .16.81c0 .07 0 .09.1.09h2c.07 0 .09 0 .08-.09a5.47 5.47 0 0 0-.2-1.2 2.92 2.92 0 0 0-1.69-1.95 4.44 4.44 0 0 0-1.57-.32c-.09 0-.11 0-.1-.12v-.61c0-.06 0-.09-.08-.09H104c-.06 0-.08 0-.08.08v.66c0 .05 0 .07-.06.07h-.24a3.6 3.6 0 0 0-1.9.69 3.42 3.42 0 0 0-1.43 3.08 2.76 2.76 0 0 0 .84 1.91 3.78 3.78 0 0 0 .9.64 9.81 9.81 0 0 0 1.81.66c.07 0 .09 0 .08.11z" fill="#daab2b"/><path d="M103.89 68.73v-1.68c0-.07 0-.09-.08-.11a9.81 9.81 0 0 1-1.81-.66 3.78 3.78 0 0 1-.9-.64 2.76 2.76 0 0 1-.84-1.91 3.42 3.42 0 0 1 1.43-3.08 3.6 3.6 0 0 1 1.9-.69h.24s.06 0 .06-.07v-.66c0-.06 0-.08.08-.08h.6c.07 0 .08 0 .08.09v.61c0 .08 0 .11.1.12a4.44 4.44 0 0 1 1.57.32 2.92 2.92 0 0 1 1.68 1.93 5.47 5.47 0 0 1 .2 1.2c0 .07 0 .09-.08.09h-2c-.07 0-.09 0-.1-.09a3.63 3.63 0 0 0-.16-.81 1.17 1.17 0 0 0-1-.82c-.2 0-.2 0-.2.17v2.87c0 .06 0 .1.08.12a13.29 13.29 0 0 1 1.84.73 6.17 6.17 0 0 1 .88.55 2.39 2.39 0 0 1 .92 1.65 4.91 4.91 0 0 1 0 1.53 3.33 3.33 0 0 1-2 2.54 4.55 4.55 0 0 1-1.62.37c-.07 0-.1 0-.09.09V73s0 .07-.07.07h-.6c-.06 0-.07 0-.07-.07v-.6c0-.06 0-.08-.08-.08a7 7 0 0 1-1.7-.35 2.87 2.87 0 0 1-1.94-2.22 7.07 7.07 0 0 1-.14-1.29c0-.07 0-.09.09-.09h2c.07 0 .09 0 .1.09a5.11 5.11 0 0 0 .2 1 1.4 1.4 0 0 0 1.18 1h.16c.07 0 .1 0 .1-.08v-.8zm.76.14v1.44c0 .2 0 .2.21.17a1.56 1.56 0 0 0 1-2.49 2.09 2.09 0 0 0-1.12-.71c-.07 0-.08 0-.08.07zm-.76-5.65v-1.37c0-.07 0-.09-.09-.08h-.23a1.37 1.37 0 0 0-1.09 1.72 1.55 1.55 0 0 0 1.34 1.15c.08 0 .06 0 .06-.07z" fill="#fefefe"/><path d="M104.65 68.87v-1.52c0-.08 0-.09.08-.07a2.09 2.09 0 0 1 1.12.71 1.56 1.56 0 0 1-1 2.49c-.21 0-.21 0-.21-.17zm-.76-5.65v1.38s0 .08-.06.07a1.55 1.55 0 0 1-1.34-1.15 1.37 1.37 0 0 1 1.09-1.72h.23c.06 0 .09 0 .09.08-.01.42-.01.88-.01 1.34z" fill="#daab2b"/><path fill="none" stroke="#ccc" stroke-linecap="round" stroke-linejoin="round" stroke-width="4" d="M2 49.61h135"/><path d="M36 27.19a9 9 0 1 1-9 9 9 9 0 0 1 9-9zm-.28 11.54v1.68c0 .09 0 .1-.1.08h-.16a1.42 1.42 0 0 1-1.18-1 5.11 5.11 0 0 1-.2-1c0-.06 0-.09-.1-.09h-2c-.07 0-.09 0-.09.09a7.07 7.07 0 0 0 .11 1.26A2.87 2.87 0 0 0 34 42a7.14 7.14 0 0 0 1.7.35c.07 0 .09 0 .09.08v.58c0 .19 0 .07.07.07h.62c.06 0 .07 0 .07-.07v-.57c0-.07 0-.09.09-.09A4.55 4.55 0 0 0 38.2 42a3.33 3.33 0 0 0 2-2.54 4.91 4.91 0 0 0 0-1.53 2.39 2.39 0 0 0-.92-1.65 6.17 6.17 0 0 0-.88-.55 13.29 13.29 0 0 0-1.83-.73c-.07 0-.08-.06-.08-.12V32c0-.2 0-.21.2-.17a1.17 1.17 0 0 1 1 .82 3.63 3.63 0 0 1 .16.81c0 .07 0 .09.1.09h2c.07 0 .09 0 .08-.09a5.47 5.47 0 0 0-.2-1.2 2.92 2.92 0 0 0-1.69-1.95 4.44 4.44 0 0 0-1.55-.31c-.09 0-.11 0-.1-.12v-.61c0-.06 0-.09-.08-.09h-.6c-.06 0-.08 0-.08.08v.66c0 .05 0 .07-.07.07h-.24a3.63 3.63 0 0 0-1.9.69 3.42 3.42 0 0 0-1.43 3.08 2.76 2.76 0 0 0 .84 1.91 3.78 3.78 0 0 0 .9.64 9.81 9.81 0 0 0 1.81.66c.07 0 .09 0 .09.11v1.65z" fill="#009e55"/><path d="M35.73 38.73v-1.68c0-.07 0-.09-.09-.11a9.81 9.81 0 0 1-1.81-.66 3.78 3.78 0 0 1-.9-.64 2.76 2.76 0 0 1-.84-1.91 3.42 3.42 0 0 1 1.43-3.08 3.63 3.63 0 0 1 1.9-.69h.24s.07 0 .07-.07v-.66c0-.06 0-.08.08-.08h.6c.07 0 .08 0 .08.09v.61c0 .08 0 .11.1.12a4.44 4.44 0 0 1 1.57.32 2.92 2.92 0 0 1 1.69 1.95 5.47 5.47 0 0 1 .2 1.2c0 .07 0 .09-.08.09H38c-.07 0-.09 0-.1-.09a3.63 3.63 0 0 0-.16-.81 1.17 1.17 0 0 0-1-.82c-.2 0-.2 0-.2.17v2.87c0 .06 0 .1.08.12a13.29 13.29 0 0 1 1.84.73 6.17 6.17 0 0 1 .88.55 2.39 2.39 0 0 1 .92 1.65 4.91 4.91 0 0 1 0 1.53 3.33 3.33 0 0 1-2 2.54 4.55 4.55 0 0 1-1.62.37c-.07 0-.09 0-.09.09V43c0 .05 0 .07-.07.07h-.68c-.06 0-.07 0-.07-.07v-.58c0-.19 0-.08-.09-.08A7.14 7.14 0 0 1 34 42a2.87 2.87 0 0 1-2-2.25 7.07 7.07 0 0 1-.14-1.29c0-.07 0-.09.09-.09h2c.07 0 .09 0 .1.09a5.11 5.11 0 0 0 .2 1 1.42 1.42 0 0 0 1.18 1h.16c.07 0 .1 0 .1-.08v-.8zm.76.14v1.44c0 .2 0 .2.21.17a1.56 1.56 0 0 0 1-2.49 2.09 2.09 0 0 0-1.12-.71c-.07 0-.08 0-.08.07zm-.76-5.65v-1.37c0-.07 0-.09-.09-.08h-.23a1.37 1.37 0 0 0-1.09 1.72 1.55 1.55 0 0 0 1.34 1.15c.08 0 .06 0 .06-.07z" fill="#fefefe"/><path d="M36.49 38.87v-1.52c0-.08 0-.09.08-.07a2.09 2.09 0 0 1 1.12.71 1.56 1.56 0 0 1-1 2.49c-.21 0-.21 0-.21-.17zm-.76-5.65v1.38s0 .08-.06.07a1.55 1.55 0 0 1-1.34-1.15 1.37 1.37 0 0 1 1.09-1.72h.23c.06 0 .09 0 .09.08-.01.42-.01.88-.01 1.34z" fill="#009e55"/><path d="M13.29 27.19a9 9 0 1 1-9 9 9 9 0 0 1 9-9zM13 38.73v1.68c0 .09 0 .1-.1.08h-.16a1.42 1.42 0 0 1-1.18-1 5.11 5.11 0 0 1-.2-1c0-.06 0-.09-.1-.09h-2c-.07 0-.09 0-.09.09a7.07 7.07 0 0 0 .14 1.29 2.87 2.87 0 0 0 2 2.22 7.06 7.06 0 0 0 1.69.35c.07 0 .09 0 .09.08v.58c0 .19 0 .07.07.07h.62c.06 0 .07 0 .07-.07v-.57c0-.07 0-.09.09-.09a4.55 4.55 0 0 0 1.54-.35 3.33 3.33 0 0 0 2-2.54 4.91 4.91 0 0 0 0-1.53 2.39 2.39 0 0 0-.92-1.65 6.17 6.17 0 0 0-.88-.55 13.29 13.29 0 0 0-1.83-.73c-.07 0-.08-.06-.08-.12V32c0-.2 0-.21.2-.17a1.17 1.17 0 0 1 1 .82 3.63 3.63 0 0 1 .16.81c0 .07 0 .09.1.09h2c.07 0 .09 0 .08-.09a5.47 5.47 0 0 0-.2-1.2 2.92 2.92 0 0 0-1.69-1.95 4.44 4.44 0 0 0-1.55-.31c-.09 0-.1 0-.1-.12v-.61c0-.06 0-.09-.08-.09h-.6c-.06 0-.08 0-.08.08v.66c0 .05 0 .07-.07.07h-.24a3.63 3.63 0 0 0-1.9.69 3.42 3.42 0 0 0-1.43 3.08 2.76 2.76 0 0 0 .84 1.91 3.78 3.78 0 0 0 .9.64 9.81 9.81 0 0 0 1.81.66c.07 0 .09 0 .09.11-.01.53-.01 1.09-.01 1.65z" fill="#daab2b"/><path d="M13 38.73v-1.68c0-.07 0-.09-.09-.11a9.81 9.81 0 0 1-1.81-.66 3.78 3.78 0 0 1-.9-.64 2.76 2.76 0 0 1-.84-1.91 3.42 3.42 0 0 1 1.43-3.08 3.63 3.63 0 0 1 1.9-.69h.24c.05 0 .07 0 .07-.07v-.66c0-.06 0-.08.08-.08h.6c.07 0 .08 0 .08.09v.61c0 .08 0 .11.1.12a4.44 4.44 0 0 1 1.57.32 2.92 2.92 0 0 1 1.69 1.95 5.47 5.47 0 0 1 .2 1.2c0 .07 0 .09-.08.09h-2c-.07 0-.09 0-.1-.09a3.63 3.63 0 0 0-.16-.81 1.17 1.17 0 0 0-1-.82c-.2 0-.2 0-.2.17v2.87c0 .06 0 .1.08.12a13.29 13.29 0 0 1 1.84.73 6.17 6.17 0 0 1 .88.55 2.39 2.39 0 0 1 .92 1.65 4.91 4.91 0 0 1 0 1.53 3.33 3.33 0 0 1-2 2.54 4.55 4.55 0 0 1-1.62.37c-.07 0-.09 0-.09.09V43c0 .05 0 .07-.07.07h-.62C13 43.05 13 43 13 43v-.58c0-.19 0-.08-.09-.08a7.06 7.06 0 0 1-1.67-.34 2.87 2.87 0 0 1-2-2.22 7.07 7.07 0 0 1-.14-1.29c0-.07 0-.09.09-.09h2c.07 0 .09 0 .1.09a5.11 5.11 0 0 0 .2 1 1.42 1.42 0 0 0 1.18 1h.16c.07 0 .1 0 .1-.08v-.8zm.76.14v1.44c0 .2 0 .2.21.17A1.56 1.56 0 0 0 15 38a2.09 2.09 0 0 0-1.12-.71c-.07 0-.08 0-.08.07zM13 33.22v-1.37c0-.07 0-.09-.09-.08h-.23a1.37 1.37 0 0 0-1.09 1.72A1.56 1.56 0 0 0 13 34.67c.08 0 .06 0 .06-.07z" fill="#fefefe"/><path d="M13.77 38.87v-1.52c0-.08 0-.09.08-.07A2.09 2.09 0 0 1 15 38a1.56 1.56 0 0 1-1 2.49c-.21 0-.21 0-.21-.17zM13 33.22v1.38s0 .08-.06.07a1.56 1.56 0 0 1-1.34-1.15 1.37 1.37 0 0 1 1.1-1.72h.23c.06 0 .09 0 .09.08-.02.42-.02.88-.02 1.34z" fill="#daab2b"/><path d="M81.45 27.19a9 9 0 1 1-9 9 9 9 0 0 1 9-9zm-.28 11.54v1.68c0 .09 0 .1-.1.08h-.16a1.41 1.41 0 0 1-1.18-1 5.11 5.11 0 0 1-.2-1c0-.06 0-.09-.1-.09h-2c-.07 0-.09 0-.09.09a7.07 7.07 0 0 0 .14 1.29A2.87 2.87 0 0 0 79.39 42a7.14 7.14 0 0 0 1.7.35c.07 0 .09 0 .09.08v.58c0 .19 0 .07.07.07h.62s.07 0 .07-.07v-.57c0-.07 0-.09.09-.09a4.55 4.55 0 0 0 1.61-.35 3.33 3.33 0 0 0 2-2.54 4.91 4.91 0 0 0 0-1.53 2.39 2.39 0 0 0-.92-1.65 6.17 6.17 0 0 0-.88-.55A13.29 13.29 0 0 0 82 35c-.07 0-.08-.06-.08-.12V32c0-.2 0-.21.2-.17a1.17 1.17 0 0 1 1 .82 3.63 3.63 0 0 1 .16.81c0 .07 0 .09.1.09h2c.07 0 .09 0 .08-.09a5.47 5.47 0 0 0-.2-1.2 2.92 2.92 0 0 0-1.69-1.95A4.44 4.44 0 0 0 82 30c-.09 0-.11 0-.1-.12v-.61c0-.06 0-.09-.08-.09h-.6c-.06 0-.08 0-.08.08v.66c0 .05 0 .07-.06.07h-.24a3.6 3.6 0 0 0-1.9.69 3.42 3.42 0 0 0-1.43 3.08 2.76 2.76 0 0 0 .84 1.91 3.78 3.78 0 0 0 .9.64 9.81 9.81 0 0 0 1.81.66c.07 0 .09 0 .09.11.02.53.02 1.09.02 1.65z" fill="#009e55"/><path d="M81.17 38.73v-1.68c0-.07 0-.09-.09-.11a9.81 9.81 0 0 1-1.81-.66 3.78 3.78 0 0 1-.9-.64 2.76 2.76 0 0 1-.84-1.91A3.42 3.42 0 0 1 79 30.65a3.6 3.6 0 0 1 1.9-.69h.24s.07 0 .06-.07v-.66c0-.06 0-.08.08-.08h.6c.07 0 .08 0 .08.09v.61c0 .08 0 .11.1.12a4.44 4.44 0 0 1 1.57.32 2.92 2.92 0 0 1 1.69 1.95 5.47 5.47 0 0 1 .2 1.2c0 .07 0 .09-.08.09h-2c-.07 0-.09 0-.1-.09a3.63 3.63 0 0 0-.16-.81 1.17 1.17 0 0 0-1-.82c-.2 0-.2 0-.2.17v2.87c0 .06 0 .1.08.12a13.29 13.29 0 0 1 1.84.73 6.17 6.17 0 0 1 .88.55 2.39 2.39 0 0 1 .92 1.65 4.91 4.91 0 0 1 0 1.53 3.33 3.33 0 0 1-2 2.54 4.55 4.55 0 0 1-1.62.37c-.07 0-.1 0-.09.09V43c0 .05 0 .07-.07.07h-.62c-.06 0-.07 0-.07-.07v-.58c0-.19 0-.08-.09-.08a7.14 7.14 0 0 1-1.7-.35 2.87 2.87 0 0 1-1.94-2.22 7.07 7.07 0 0 1-.14-1.29c0-.07 0-.09.09-.09h2c.07 0 .09 0 .1.09a5.11 5.11 0 0 0 .2 1 1.41 1.41 0 0 0 1.18 1h.16c.07 0 .1 0 .1-.08v-.8zm.76.14v1.44c0 .2 0 .2.21.17a1.56 1.56 0 0 0 1-2.49 2.09 2.09 0 0 0-1.14-.71c-.07 0-.08 0-.08.07zm-.76-5.65v-1.37c0-.07 0-.09-.09-.08h-.23a1.37 1.37 0 0 0-1.09 1.72 1.55 1.55 0 0 0 1.34 1.15c.08 0 .06 0 .06-.07z" fill="#fefefe"/><path d="M81.93 38.87v-1.52c0-.08 0-.09.08-.07a2.09 2.09 0 0 1 1.12.71 1.56 1.56 0 0 1-1 2.49c-.21 0-.21 0-.21-.17zm-.76-5.65v1.38s0 .08-.06.07a1.55 1.55 0 0 1-1.34-1.15 1.37 1.37 0 0 1 1.09-1.72h.23c.06 0 .09 0 .09.08-.01.42-.01.88-.01 1.34z" fill="#009e55"/><path d="M58.73 27.19a9 9 0 1 1-9 9 9 9 0 0 1 9-9zm-.28 11.54v1.68c0 .09 0 .1-.1.08h-.16a1.41 1.41 0 0 1-1.18-1 5.11 5.11 0 0 1-.2-1c0-.06 0-.09-.1-.09h-2c-.07 0-.09 0-.09.09a7.07 7.07 0 0 0 .14 1.29A2.87 2.87 0 0 0 56.67 42a7.14 7.14 0 0 0 1.7.35c.07 0 .09 0 .09.08v.58c0 .19 0 .07.07.07h.62s.07 0 .07-.07v-.57c0-.07 0-.09.09-.09a4.55 4.55 0 0 0 1.61-.35 3.33 3.33 0 0 0 2-2.54 4.91 4.91 0 0 0 0-1.53 2.39 2.39 0 0 0-.92-1.7 6.17 6.17 0 0 0-.88-.55 13.29 13.29 0 0 0-1.83-.68c-.07 0-.08-.06-.08-.12V32c0-.2 0-.21.2-.17a1.17 1.17 0 0 1 1 .82 3.63 3.63 0 0 1 .16.81c0 .07 0 .09.1.09h2c.07 0 .09 0 .08-.09a5.47 5.47 0 0 0-.2-1.2 2.92 2.92 0 0 0-1.69-1.95 4.44 4.44 0 0 0-1.55-.31c-.09 0-.11 0-.1-.12v-.61c0-.06 0-.09-.08-.09h-.6c-.06 0-.08 0-.08.08v.66c0 .05 0 .07-.06.07h-.24a3.63 3.63 0 0 0-1.9.69 3.42 3.42 0 0 0-1.43 3.08 2.76 2.76 0 0 0 .84 1.91 3.78 3.78 0 0 0 .9.64 9.81 9.81 0 0 0 1.81.66c.07 0 .09 0 .09.11-.01.53-.01 1.09-.01 1.65z" fill="#daab2b"/><path d="M58.45 38.73v-1.68c0-.07 0-.09-.09-.11a9.81 9.81 0 0 1-1.81-.66 3.78 3.78 0 0 1-.9-.64 2.76 2.76 0 0 1-.84-1.91 3.42 3.42 0 0 1 1.43-3.08 3.63 3.63 0 0 1 1.9-.69h.24s.07 0 .06-.07v-.66c0-.06 0-.08.08-.08h.6c.07 0 .08 0 .08.09v.61c0 .08 0 .11.1.12a4.44 4.44 0 0 1 1.57.32 2.92 2.92 0 0 1 1.69 1.95 5.47 5.47 0 0 1 .2 1.2c0 .07 0 .09-.08.09h-2c-.07 0-.09 0-.1-.09a3.63 3.63 0 0 0-.16-.81 1.17 1.17 0 0 0-1-.82c-.2 0-.2 0-.2.17v2.87c0 .06 0 .1.08.12a13.29 13.29 0 0 1 1.84.73 6.17 6.17 0 0 1 .88.55 2.39 2.39 0 0 1 .92 1.65 4.91 4.91 0 0 1 0 1.53 3.33 3.33 0 0 1-2 2.54 4.55 4.55 0 0 1-1.62.37c-.07 0-.1 0-.09.09V43c0 .05 0 .07-.07.07h-.62c-.06 0-.07 0-.07-.07v-.58c0-.19 0-.08-.09-.08a7.14 7.14 0 0 1-1.7-.35 2.87 2.87 0 0 1-1.94-2.22 7.07 7.07 0 0 1-.14-1.29c0-.07 0-.09.09-.09h2c.07 0 .09 0 .1.09a5.11 5.11 0 0 0 .2 1 1.41 1.41 0 0 0 1.18 1h.16c.07 0 .1 0 .1-.08v-.8zm.76.14v1.44c0 .2 0 .2.21.17a1.56 1.56 0 0 0 1-2.49 2.09 2.09 0 0 0-1.12-.71c-.07 0-.08 0-.08.07zm-.76-5.65v-1.37c0-.07 0-.09-.09-.08h-.23a1.37 1.37 0 0 0-1.09 1.72 1.55 1.55 0 0 0 1.34 1.15c.08 0 .06 0 .06-.07z" fill="#fefefe"/><path d="M59.21 38.87v-1.52c0-.08 0-.09.08-.07a2.09 2.09 0 0 1 1.12.71 1.56 1.56 0 0 1-1 2.49c-.21 0-.21 0-.21-.17zm-.76-5.65v1.38s0 .08-.06.07a1.55 1.55 0 0 1-1.34-1.15 1.37 1.37 0 0 1 1.09-1.72h.23c.06 0 .09 0 .09.08-.01.42-.01.88-.01 1.34z" fill="#daab2b"/><path d="M126.89 27.19a9 9 0 1 1-9 9 9 9 0 0 1 9-9zm-.28 11.54v1.68c0 .09 0 .1-.1.08h-.16a1.4 1.4 0 0 1-1.18-1 5.11 5.11 0 0 1-.2-1c0-.06 0-.09-.1-.09h-2c-.07 0-.09 0-.09.09a7.07 7.07 0 0 0 .14 1.29 2.87 2.87 0 0 0 1.91 2.22 7 7 0 0 0 1.7.35c.06 0 .09 0 .08.08V43c0 .05 0 .07.07.07h.62s.07 0 .07-.07v-.57c0-.07 0-.09.09-.09a4.55 4.55 0 0 0 1.62-.37 3.33 3.33 0 0 0 2-2.54 4.91 4.91 0 0 0 0-1.53 2.39 2.39 0 0 0-.92-1.65 6.17 6.17 0 0 0-.88-.55 13.29 13.29 0 0 0-1.84-.73c-.07 0-.08-.06-.08-.12V32c0-.2 0-.21.2-.17a1.17 1.17 0 0 1 1 .82 3.63 3.63 0 0 1 .16.81c0 .07 0 .09.1.09h2c.07 0 .09 0 .08-.09a5.47 5.47 0 0 0-.2-1.2 2.92 2.92 0 0 0-1.7-1.99 4.44 4.44 0 0 0-1.57-.32c-.09 0-.11 0-.1-.12v-.61c0-.06 0-.09-.08-.09h-.6c-.06 0-.08 0-.08.08v.66c0 .05 0 .07-.06.07h-.24a3.6 3.6 0 0 0-1.9.69 3.42 3.42 0 0 0-1.37 3.1 2.76 2.76 0 0 0 .84 1.91 3.78 3.78 0 0 0 .9.64 9.55 9.55 0 0 0 1.81.66c.07 0 .08 0 .08.11z" fill="#009e55"/><path d="M126.61 38.73v-1.68c0-.07 0-.09-.08-.11a9.55 9.55 0 0 1-1.81-.66 3.78 3.78 0 0 1-.9-.64 2.76 2.76 0 0 1-.84-1.91 3.42 3.42 0 0 1 1.43-3.08 3.6 3.6 0 0 1 1.9-.69h.24s.06 0 .06-.07v-.66c0-.06 0-.08.08-.08h.6c.07 0 .08 0 .08.09v.61c0 .08 0 .11.1.12a4.44 4.44 0 0 1 1.57.32 2.92 2.92 0 0 1 1.69 1.95 5.47 5.47 0 0 1 .2 1.2c0 .07 0 .09-.08.09h-2c-.07 0-.09 0-.1-.09a3.63 3.63 0 0 0-.16-.81 1.17 1.17 0 0 0-1-.82c-.2 0-.2 0-.2.17v2.87c0 .06 0 .1.08.12a13.29 13.29 0 0 1 1.84.73 6.17 6.17 0 0 1 .88.55 2.39 2.39 0 0 1 .92 1.65 4.91 4.91 0 0 1 0 1.53 3.33 3.33 0 0 1-2 2.54 4.55 4.55 0 0 1-1.62.37c-.07 0-.1 0-.09.09V43c0 .05 0 .07-.07.07h-.62c-.06 0-.07 0-.07-.07v-.6c0-.06 0-.08-.08-.08a7 7 0 0 1-1.7-.35 2.87 2.87 0 0 1-1.94-2.22 7.07 7.07 0 0 1-.14-1.29c0-.07 0-.09.09-.09h2c.07 0 .09 0 .1.09a5.11 5.11 0 0 0 .2 1 1.4 1.4 0 0 0 1.18 1h.16c.07 0 .1 0 .1-.08v-.8zm.76.14v1.44c0 .2 0 .2.21.17a1.56 1.56 0 0 0 1-2.49 2.09 2.09 0 0 0-1.12-.71c-.07 0-.08 0-.08.07zm-.76-5.65v-1.37c0-.07 0-.09-.08-.08h-.23a1.37 1.37 0 0 0-1.09 1.72 1.55 1.55 0 0 0 1.34 1.15c.08 0 .06 0 .06-.07z" fill="#fefefe"/><path d="M127.37 38.87v-1.52c0-.08 0-.09.08-.07a2.09 2.09 0 0 1 1.12.71 1.56 1.56 0 0 1-1 2.49c-.21 0-.21 0-.21-.17zm-.76-5.65v1.38s0 .08-.06.07a1.55 1.55 0 0 1-1.34-1.15 1.37 1.37 0 0 1 1.09-1.72h.23c.06 0 .09 0 .08.08z" fill="#009e55"/><path d="M104.17 27.19a9 9 0 1 1-9 9 9 9 0 0 1 9-9zm-.28 11.54v1.68c0 .09 0 .1-.1.08h-.16a1.4 1.4 0 0 1-1.18-1 5.11 5.11 0 0 1-.2-1c0-.06 0-.09-.1-.09h-2c-.07 0-.09 0-.09.09a7.07 7.07 0 0 0 .14 1.29 2.87 2.87 0 0 0 1.91 2.22 7 7 0 0 0 1.7.35c.06 0 .09 0 .08.08V43c0 .05 0 .07.07.07h.62s.07 0 .07-.07v-.57c0-.07 0-.09.09-.09a4.55 4.55 0 0 0 1.62-.37 3.33 3.33 0 0 0 2-2.54 4.91 4.91 0 0 0 0-1.53 2.39 2.39 0 0 0-.92-1.65 6.17 6.17 0 0 0-.88-.55 13.29 13.29 0 0 0-1.84-.73c-.07 0-.08-.06-.08-.12V32c0-.2 0-.21.2-.17a1.17 1.17 0 0 1 1 .82 3.63 3.63 0 0 1 .16.81c0 .07 0 .09.1.09h2c.07 0 .09 0 .08-.09a5.47 5.47 0 0 0-.2-1.2 2.92 2.92 0 0 0-1.69-1.95 4.44 4.44 0 0 0-1.57-.32c-.09 0-.11 0-.1-.12v-.61c0-.06 0-.09-.08-.09H104c-.06 0-.08 0-.08.08v.66c0 .05 0 .07-.06.07h-.24a3.6 3.6 0 0 0-1.9.69 3.42 3.42 0 0 0-1.43 3.08 2.76 2.76 0 0 0 .84 1.91 3.78 3.78 0 0 0 .9.64 9.81 9.81 0 0 0 1.81.66c.07 0 .09 0 .08.11z" fill="#daab2b"/><path d="M103.89 38.73v-1.68c0-.07 0-.09-.08-.11a9.81 9.81 0 0 1-1.81-.66 3.78 3.78 0 0 1-.9-.64 2.76 2.76 0 0 1-.84-1.91 3.42 3.42 0 0 1 1.43-3.08 3.6 3.6 0 0 1 1.9-.69h.24s.06 0 .06-.07v-.66c0-.06 0-.08.08-.08h.6c.07 0 .08 0 .08.09v.61c0 .08 0 .11.1.12a4.44 4.44 0 0 1 1.57.32 2.92 2.92 0 0 1 1.68 1.93 5.47 5.47 0 0 1 .2 1.2c0 .07 0 .09-.08.09h-2c-.07 0-.09 0-.1-.09a3.63 3.63 0 0 0-.16-.81 1.17 1.17 0 0 0-1-.82c-.2 0-.2 0-.2.17v2.87c0 .06 0 .1.08.12a13.29 13.29 0 0 1 1.84.73 6.17 6.17 0 0 1 .88.55 2.39 2.39 0 0 1 .92 1.65 4.91 4.91 0 0 1 0 1.53 3.33 3.33 0 0 1-2 2.54 4.55 4.55 0 0 1-1.62.37c-.07 0-.1 0-.09.09V43c0 .05 0 .07-.07.07h-.6c-.06 0-.07 0-.07-.07v-.6c0-.06 0-.08-.08-.08a7 7 0 0 1-1.7-.35 2.87 2.87 0 0 1-1.94-2.22 7.07 7.07 0 0 1-.14-1.29c0-.07 0-.09.09-.09h2c.07 0 .09 0 .1.09a5.11 5.11 0 0 0 .2 1 1.4 1.4 0 0 0 1.18 1h.16c.07 0 .1 0 .1-.08v-.8zm.76.14v1.44c0 .2 0 .2.21.17a1.56 1.56 0 0 0 1-2.49 2.09 2.09 0 0 0-1.12-.71c-.07 0-.08 0-.08.07zm-.76-5.65v-1.37c0-.07 0-.09-.09-.08h-.23a1.37 1.37 0 0 0-1.09 1.72 1.55 1.55 0 0 0 1.34 1.15c.08 0 .06 0 .06-.07z" fill="#fefefe"/><path d="M104.65 38.87v-1.52c0-.08 0-.09.08-.07a2.09 2.09 0 0 1 1.12.71 1.56 1.56 0 0 1-1 2.49c-.21 0-.21 0-.21-.17zm-.76-5.65v1.38s0 .08-.06.07a1.55 1.55 0 0 1-1.34-1.15 1.37 1.37 0 0 1 1.09-1.72h.23c.06 0 .09 0 .09.08-.01.42-.01.88-.01 1.34z" fill="#daab2b"/></g></g></svg>